<?xml version="1.0" encoding="UTF-8"?>
<svg xmlns="http://www.w3.org/2000/svg" version="1.1" viewBox="0 0 850.4 850.4">
  <defs>
    <style>
      .cls-1 {
        fill-rule: evenodd;
      }

      .cls-1, .cls-2 {
        fill: #599d90;
      }

      .cls-3 {
        fill: #ca6aa1;
      }
    </style>
  </defs>
  <!-- Generator: Adobe Illustrator 28.7.2, SVG Export Plug-In . SVG Version: 1.2.0 Build 154)  -->
  <g>
    <g id="Camada_1">
      <g>
        <path class="cls-2" d="M399.2,424.6c-2-4.6-5.1-8.6-8.8-11.6-4.1-3.4-9-5.7-14.2-6.7-2.6-.5-5.3-.7-8-.6-2.2.1-4.5.5-6.7,1.1,1,2.2,2.1,4.2,3.5,6,1.6,2.2,3.5,4.2,5.6,5.9,4.1,3.3,9,5.5,14.1,6.5,4.7.9,9.6.7,14.4-.6M402.2,424.6c4.8,1.3,9.7,1.5,14.4.6,5.2-1,10-3.2,14.1-6.5,2.1-1.7,4-3.7,5.6-5.9,1.4-1.8,2.5-3.9,3.5-6-2.2-.6-4.5-1-6.7-1.1-2.7-.2-5.4,0-8,.6-5.2,1-10.1,3.4-14.2,6.8-3.7,3.1-6.7,7-8.8,11.6ZM392.3,375.3l7.4,6.2v-14.4c-2.9,2-5.4,4.7-7.1,7.7l-.2.4ZM389.4,384.9l10.3,8.4v-8.9l-8.4-7.1c-1,2.4-1.7,4.9-1.9,7.5ZM399.7,396.2l-10.4-8.5c.1,4,1.3,7.9,3.2,11.3,1.8,3,4.2,5.7,7.1,7.8v-10.5ZM409.3,375.3l-.2-.4c-1.8-3-4.2-5.7-7.1-7.7v14.4l7.4-6.2ZM412.2,384.9c-.2-2.6-.9-5.2-1.9-7.5l-8.4,7.1v8.9l10.3-8.4ZM411,400.1c-2.2,3.8-5.3,7-9.1,9.3v10.7c2-3.5,4.6-6.5,7.6-8.9,4.4-3.6,9.6-6.1,15.2-7.2,2.8-.5,5.6-.8,8.5-.6,2.8.2,5.6.7,8.3,1.5,0,0,.1,0,.2,0,.6.2.9.9.6,1.5-1.1,2.8-2.5,5.3-4.2,7.7-1.7,2.4-3.8,4.5-6,6.3-4.4,3.5-9.6,5.9-15.1,7-4.9.9-10,.8-15.1-.6v12.8c0,.6-.5,1.1-1.1,1.1s-1.1-.5-1.1-1.1v-12.9c-5.1,1.4-10.3,1.5-15.3.6-5.5-1-10.7-3.4-15.1-7-2.3-1.8-4.3-3.9-6-6.3-1.7-2.3-3.1-4.9-4.2-7.7h0c-.2-.7.1-1.3.7-1.5,2.8-.9,5.6-1.4,8.4-1.6,2.9-.2,5.8,0,8.5.6,5.6,1.1,10.8,3.6,15.2,7.2,3.1,2.6,5.7,5.7,7.8,9.3v-11.1c-3.8-2.3-6.9-5.6-9.1-9.3-2.3-3.9-3.5-8.5-3.5-13.2s1-8.2,2.8-11.9h0c.2-.5.4-.9.7-1.3h0c2.3-4,5.5-7.3,9.5-9.6.2-.1.4-.2.6-.2s.4,0,.6.2c4,2.3,7.3,5.6,9.5,9.5h0c.2.5.5.9.7,1.3h0c1.8,3.7,2.8,7.7,2.8,11.9s-1.3,9.2-3.5,13.2ZM401.9,406.8c3-2.1,5.4-4.7,7.1-7.8,2-3.4,3.1-7.2,3.2-11.3l-10.4,8.5v10.5Z"/>
        <polygon class="cls-1" points="352.8 322.2 357.2 326.9 363.5 326.5 358.8 330.8 359.3 337.2 354.9 332.4 348.5 332.9 353.3 328.5 352.8 322.2"/>
        <path class="cls-3" d="M479.5,443.5h0c-.7.8-1.8,1.7-3.1,2.6-.6.4-1.3.9-2,1.3-1.3.8-2.6,1.5-3.7,2.2-1.2.7-2.2,1.2-3,1.6-.4.2-.6.3-.8.4-1.7,0-3.6,0-5,0-.2,0-.4,0-.5,0,.2-.1.5-.3.8-.5h0c.9-.6,2-1.2,3-1.8,1.6-1,3.4-2,5.2-3.1,1.1-.7,2.2-1.4,3.2-2l.3-.6-.5-1.6c-.5.4-1.1.7-1.7,1.1-2.4,1.6-5.2,3.2-7.5,4.6-.2.1-.4.2-.6.3h0c-1.3.8-2.2,1.3-2.9,1.8h0c-.6.4-1,.6-1.3.9-.4.3-.6.5-.8.6h0s0,0,0,0c0,0,0,0,0,0,0,0-.1.2-.2.3-.2.3-.1.7,0,1,.1.2.2.3.7.5,0,0,.1,0,.2,0,.2,0,.5.1.9.2,0,0,.2,0,.2,0,.3,0,.6,0,1,0,1.2,0,2.8.1,5.2,0,.2,0,.4,0,.6,0h.2s.2-.1.2-.1c0,0,.7-.3,1.6-.8,3-1.6,9.6-5.2,11.8-7.8.6-.7,1.3-1.8,2-3,0,0,0,0,0-.1,0-.9-.2-2-.3-3.2-1.1,2.2-2.2,4.1-3.1,5.1M468.2,438.6h0c0,0-.1,0-.1,0,0,0,0,0,0,0,0,0,0,0,0,0-.2,0-.4,0-.5-.2,0,0,0,0-.1-.1,0,0,0,0-.1-.1l-.6-.9c-.5.2-.9.5-1.4.7-1,.5-2,1.1-3,1.6-.6.3-1.1.6-1.7.9-2.2,1.2-3.8,2.2-4.2,2.5,0,0,0,0,0,0-.5.3-1.1.6-1.7.8h0c-2.2.7-5.5.9-10,.7l.4,1.9c4.6.3,8,0,10.5-.9.6-.2,1.2-.5,1.7-.8,0,0,.2-.1.3-.2.8-.5,2.2-1.3,3.9-2.3.5-.3,1.1-.6,1.7-.9,1.1-.6,2.3-1.3,3.5-1.9.6-.3,1.2-.6,1.7-.9,0,0,.1,0,.2,0,0,0-.1,0-.2,0ZM479.5,443.5h0c-.7.8-1.8,1.7-3.1,2.6-.6.4-1.3.9-2,1.3-1.3.8-2.6,1.5-3.7,2.2-1.2.7-2.2,1.2-3,1.6-.4.2-.6.3-.8.4-1.7,0-3.6,0-5,0-.2,0-.4,0-.5,0,.2-.1.5-.3.8-.5h0c.9-.6,2-1.2,3-1.8,1.6-1,3.4-2,5.2-3.1,1.1-.7,2.2-1.4,3.2-2l.3-.6-.5-1.6c-.5.4-1.1.7-1.7,1.1-2.4,1.6-5.2,3.2-7.5,4.6-.2.1-.4.2-.6.3h0c-1.3.8-2.2,1.3-2.9,1.8h0c-.6.4-1,.6-1.3.9-.4.3-.6.5-.8.6h0s0,0,0,0c0,0,0,0,0,0,0,0-.1.2-.2.3-.2.3-.1.7,0,1,.1.2.2.3.7.5,0,0,.1,0,.2,0,.2,0,.5.1.9.2,0,0,.2,0,.2,0,.3,0,.6,0,1,0,1.2,0,2.8.1,5.2,0,.2,0,.4,0,.6,0h.2s.2-.1.2-.1c0,0,.7-.3,1.6-.8,3-1.6,9.6-5.2,11.8-7.8.6-.7,1.3-1.8,2-3,0,0,0,0,0-.1,0-.9-.2-2-.3-3.2-1.1,2.2-2.2,4.1-3.1,5.1ZM468.2,438.6h0c0,0-.1,0-.1,0,0,0,0,0,0,0,0,0,0,0,0,0-.2,0-.4,0-.5-.2,0,0,0,0-.1-.1,0,0,0,0-.1-.1l-.6-.9c-.5.2-.9.5-1.4.7-1,.5-2,1.1-3,1.6-.6.3-1.1.6-1.7.9-2.2,1.2-3.8,2.2-4.2,2.5,0,0,0,0,0,0-.5.3-1.1.6-1.7.8h0c-2.2.7-5.5.9-10,.7l.4,1.9c4.6.3,8,0,10.5-.9.6-.2,1.2-.5,1.7-.8,0,0,.2-.1.3-.2.8-.5,2.2-1.3,3.9-2.3.5-.3,1.1-.6,1.7-.9,1.1-.6,2.3-1.3,3.5-1.9.6-.3,1.2-.6,1.7-.9,0,0,.1,0,.2,0,0,0-.1,0-.2,0ZM479.5,443.5h0c-.7.8-1.8,1.7-3.1,2.6-.6.4-1.3.9-2,1.3-1.3.8-2.6,1.5-3.7,2.2-1.2.7-2.2,1.2-3,1.6-.4.2-.6.3-.8.4-1.7,0-3.6,0-5,0-.2,0-.4,0-.5,0,.2-.1.5-.3.8-.5h0c.9-.6,2-1.2,3-1.8,1.6-1,3.4-2,5.2-3.1,1.1-.7,2.2-1.4,3.2-2l.3-.6-.5-1.6c-.5.4-1.1.7-1.7,1.1-2.4,1.6-5.2,3.2-7.5,4.6-.2.1-.4.2-.6.3h0c-1.3.8-2.2,1.3-2.9,1.8h0c-.6.4-1,.6-1.3.9-.4.3-.6.5-.8.6h0s0,0,0,0c0,0,0,0,0,0,0,0-.1.2-.2.3-.2.3-.1.7,0,1,.1.2.2.3.7.5,0,0,.1,0,.2,0,.2,0,.5.1.9.2,0,0,.2,0,.2,0,.3,0,.6,0,1,0,1.2,0,2.8.1,5.2,0,.2,0,.4,0,.6,0h.2s.2-.1.2-.1c0,0,.7-.3,1.6-.8,3-1.6,9.6-5.2,11.8-7.8.6-.7,1.3-1.8,2-3,0,0,0,0,0-.1,0-.9-.2-2-.3-3.2-1.1,2.2-2.2,4.1-3.1,5.1ZM468.2,438.6h0c0,0-.1,0-.1,0,0,0,0,0,0,0,0,0,0,0,0,0-.2,0-.4,0-.5-.2,0,0,0,0-.1-.1,0,0,0,0-.1-.1l-.6-.9c-.5.2-.9.5-1.4.7-1,.5-2,1.1-3,1.6-.6.3-1.1.6-1.7.9-2.2,1.2-3.8,2.2-4.2,2.5,0,0,0,0,0,0-.5.3-1.1.6-1.7.8h0c-2.2.7-5.5.9-10,.7l.4,1.9c4.6.3,8,0,10.5-.9.6-.2,1.2-.5,1.7-.8,0,0,.2-.1.3-.2.8-.5,2.2-1.3,3.9-2.3.5-.3,1.1-.6,1.7-.9,1.1-.6,2.3-1.3,3.5-1.9.6-.3,1.2-.6,1.7-.9,0,0,.1,0,.2,0,0,0-.1,0-.2,0ZM479.5,443.5h0c-.7.8-1.8,1.7-3.1,2.6-.6.4-1.3.9-2,1.3-1.3.8-2.6,1.5-3.7,2.2-1.2.7-2.2,1.2-3,1.6-.4.2-.6.3-.8.4-1.7,0-3.6,0-5,0-.2,0-.4,0-.5,0,.2-.1.5-.3.8-.5h0c.9-.6,2-1.2,3-1.8,1.6-1,3.4-2,5.2-3.1,1.1-.7,2.2-1.4,3.2-2,.4-.3.8-.6,1.2-.8.7-.5,1.4-1,2-1.4l.2-2.6c0,0-.1.1-.2.2-.5.4-1.1.9-1.9,1.5-.5.4-1,.7-1.6,1.1-.5.4-1.1.7-1.7,1.1-2.4,1.6-5.2,3.2-7.5,4.6-.2.1-.4.2-.6.3h0c-1.3.8-2.2,1.3-2.9,1.8h0c-.6.4-1,.6-1.3.9-.4.3-.6.5-.8.6h0s0,0,0,0c0,0,0,0,0,0,0,0-.1.2-.2.3-.2.3-.1.7,0,1,.1.2.2.3.7.5,0,0,.1,0,.2,0,.2,0,.5.1.9.2,0,0,.2,0,.2,0,.3,0,.6,0,1,0,1.2,0,2.8.1,5.2,0,.2,0,.4,0,.6,0h.2s.2-.1.2-.1c0,0,.7-.3,1.6-.8,3-1.6,9.6-5.2,11.8-7.8.6-.7,1.3-1.8,2-3,0,0,0,0,0-.1,0-.9-.2-2-.3-3.2-1.1,2.2-2.2,4.1-3.1,5.1ZM496.5,423.3h0c-5.5-1.4-9.5,5.1-9.6,5.4h0c0,.2-1.2,3.2-2.8,6.5-.5,1.1-1,2.2-1.6,3.3-1.1,2.2-2.2,4.1-3.1,5.1-.7.8-1.8,1.7-3.1,2.6-.6.4-1.3.9-2,1.3-1.3.8-2.6,1.5-3.7,2.2-1.2.7-2.2,1.2-3,1.6-.4.2-.6.3-.8.4-1.7,0-3.6,0-5,0-.2,0-.4,0-.5,0,.2-.1.5-.3.8-.5h0c.9-.6,2-1.2,3-1.8,1.6-1,3.4-2,5.2-3.1,1.1-.7,2.2-1.4,3.2-2,.4-.3.8-.6,1.2-.8.7-.5,1.4-1,2-1.4.5-.4.9-.7,1.3-1,2.9-2.6,3.1-4.4,2.7-5.5-.4-1.2-1.7-2-3.3-2.2,0,0-.2,0-.3,0,0,0-.1,0-.2,0-.2,0-.5,0-.9.1-.2,0-.4,0-.6.2-1.1.3-2.5.9-4.1,1.7-.6.3-1.2.5-1.7.8-.4.2-.9.4-1.3.6-.4.2-.9.5-1.3.7-.1,0-.2.1-.4.2-.5.2-.9.5-1.4.7-1,.5-2,1.1-3,1.6-.6.3-1.1.6-1.7.9-2.2,1.2-3.8,2.2-4.2,2.5,0,0,0,0,0,0-.5.3-1.1.6-1.7.8h0c-2.2.7-5.5.9-10,.7-.6,0-1.3,0-2-.1-.3,0-.6,0-.8,0-3-.3-5.8,0-8.3.9-.7.2-1.3.5-2,.7-4.1,1.8-7.2,4.7-8.9,7.6-2.4,4.1-11.8,9.6-13.9,10.8l1.1,1.6c2.4-1.4,11.8-7,14.4-11.4,1.4-2.4,3.9-4.8,7.1-6.4.6-.3,1.3-.6,2-.9,2.5-.9,5.3-1.3,8.3-1.1.5,0,.9,0,1.4.1.7,0,1.3.1,2,.1,4.6.3,8,0,10.5-.9.6-.2,1.2-.5,1.7-.8,0,0,.2-.1.3-.2.8-.5,2.2-1.3,3.9-2.3.5-.3,1.1-.6,1.7-.9,1.1-.6,2.3-1.3,3.5-1.9.6-.3,1.2-.6,1.7-.9,0,0,.1,0,.2,0,.6-.3,1.1-.6,1.7-.8.6-.3,1.2-.6,1.7-.8,1.3-.6,2.5-1.2,3.5-1.5.7-.3,1.3-.4,1.6-.4.1,0,.2,0,.4,0,.8.1,1.5.4,1.6.9,0,.3.2,1.3-2,3.3,0,0-.1.1-.2.2-.5.4-1.1.9-1.9,1.5-.5.4-1,.7-1.6,1.1-.5.4-1.1.7-1.7,1.1-2.4,1.6-5.2,3.2-7.5,4.6-.2.1-.4.2-.6.3h0c-1.3.8-2.2,1.3-2.9,1.8h0c-.6.4-1,.6-1.3.9-.4.3-.6.5-.8.6h0s0,0,0,0c0,0,0,0,0,0,0,0-.1.2-.2.3-.2.3-.1.7,0,1,.1.2.2.3.7.5,0,0,.1,0,.2,0,.2,0,.5.1.9.2,0,0,.2,0,.2,0,.3,0,.6,0,1,0,1.2,0,2.8.1,5.2,0,.2,0,.4,0,.6,0h.2s.2-.1.2-.1c0,0,.7-.3,1.6-.8,3-1.6,9.6-5.2,11.8-7.8.6-.7,1.3-1.8,2-3,.5-.9,1.1-2,1.6-3,2-4,3.8-8.5,4.1-9.2.3-.5,3-4.6,6.4-4.6l-9.3,22.7h0c0,.1,0,.2,0,.2,0,0-.5,3.4-5.7,6.7-4,2.5-10,6.7-13.4,9-.6.4-1.1.8-1.5,1.1-.3.2-.5.4-.7.5-2.4.2-19.7,1.4-32.9,5.3-.7.2-1.3.4-2,.6-.3,0-.5.2-.8.3h-.3c0,0-8.3,10-8.3,10l1.5,1.2,8-9.5c14.1-4.7,34.9-6,35.2-6h.3s.2-.2.2-.2c.1,0,10.1-7.1,15.7-10.7,5.5-3.5,6.4-7.1,6.5-7.9l10.2-24.7-1.1-.3ZM466.5,439.6h0c.6-.3,1.2-.6,1.7-.9,0,0,.1,0,.2,0,0,0-.1,0-.2,0,0,0-.1,0-.1,0,0,0,0,0,0,0,0,0,0,0,0,0-.2,0-.4,0-.5-.2,0,0,0,0-.1-.1,0,0,0,0-.1-.1l-.6-.9c-.5.2-.9.5-1.4.7-1,.5-2,1.1-3,1.6.3.6.5,1.2.8,1.8,1.1-.6,2.3-1.3,3.5-1.9ZM479.5,443.5h0c-.7.8-1.8,1.7-3.1,2.6-.6.4-1.3.9-2,1.3-1.3.8-2.6,1.5-3.7,2.2-1.2.7-2.2,1.2-3,1.6-.4.2-.6.3-.8.4-1.7,0-3.6,0-5,0-.2,0-.4,0-.5,0,.2-.1.5-.3.8-.5h0c.9-.6,2-1.2,3-1.8,1.6-1,3.4-2,5.2-3.1,1.1-.7,2.2-1.4,3.2-2,.4-.3.8-.6,1.2-.8.7-.5,1.4-1,2-1.4.5-.4.9-.7,1.3-1,2.9-2.6,3.1-4.4,2.7-5.5-.4-1.2-1.7-2-3.3-2.2,0,0-.2,0-.3,0,0,0,0,0,0,0-.3.3-.7.3-1.1,0-.2,0-.4,0-.6.2-1.1.3-2.5.9-4.1,1.7l.5,1.9c1.3-.6,2.5-1.2,3.5-1.5.7-.3,1.3-.4,1.6-.4.1,0,.2,0,.4,0,.8.1,1.5.4,1.6.9,0,.3.2,1.3-2,3.3,0,0-.1.1-.2.2-.5.4-1.1.9-1.9,1.5-.5.4-1,.7-1.6,1.1-.5.4-1.1.7-1.7,1.1-2.4,1.6-5.2,3.2-7.5,4.6-.2.1-.4.2-.6.3h0c-1.3.8-2.2,1.3-2.9,1.8h0c-.6.4-1,.6-1.3.9-.4.3-.6.5-.8.6h0s0,0,0,0c0,0,0,0,0,0,0,0-.1.2-.2.3-.2.3-.1.7,0,1,.1.2.2.3.7.5,0,0,.1,0,.2,0,.2,0,.5.1.9.2,0,0,.2,0,.2,0,.3,0,.6,0,1,0,1.2,0,2.8.1,5.2,0,.2,0,.4,0,.6,0h.2s.2-.1.2-.1c0,0,.7-.3,1.6-.8,3-1.6,9.6-5.2,11.8-7.8.6-.7,1.3-1.8,2-3,0,0,0,0,0-.1,0-.9-.2-2-.3-3.2-1.1,2.2-2.2,4.1-3.1,5.1ZM464.1,447.6h0c-.2.1-.4.2-.6.3h0c-1.3.8-2.2,1.3-2.9,1.8h0c-.6.4-1,.6-1.3.9-.4.3-.6.5-.8.6h0s0,0,0,0c0,0,0,0,0,0,0,0-.1.2-.2.3-.2.3-.1.7,0,1,.1.2.2.3.7.5,0,0,.1,0,.2,0,.2,0,.5.1.9.2,0,0,.2,0,.2,0,.3,0,.6,0,1,0,1.2,0,2.8.1,5.2,0,0-.1,0-.2,0-.3l1-2c-.4.2-.6.3-.8.4-1.7,0-3.6,0-5,0-.2,0-.4,0-.5,0,.2-.1.5-.3.8-.5h0c.9-.6,2-1.2,3-1.8,1.6-1,3.4-2,5.2-3.1l1.4-2.8v-.3c-2.5,1.6-5.3,3.2-7.6,4.6ZM468.2,438.6h0c0,0-.1,0-.1,0,0,0,0,0,0,0,0,0,0,0,0,0-.2,0-.4,0-.5-.2,0,0,0,0-.1-.1,0,0,0,0-.1-.1l-.6-.9c-.5.2-.9.5-1.4.7-1,.5-2,1.1-3,1.6-.6.3-1.1.6-1.7.9-2.2,1.2-3.8,2.2-4.2,2.5,0,0,0,0,0,0-.5.3-1.1.6-1.7.8h0c-2.2.7-5.5.9-10,.7l.4,1.9c4.6.3,8,0,10.5-.9.6-.2,1.2-.5,1.7-.8,0,0,.2-.1.3-.2.8-.5,2.2-1.3,3.9-2.3.5-.3,1.1-.6,1.7-.9,1.1-.6,2.3-1.3,3.5-1.9.6-.3,1.2-.6,1.7-.9,0,0,.1,0,.2,0,0,0-.1,0-.2,0ZM479.5,443.5h0c-.7.8-1.8,1.7-3.1,2.6-.6.4-1.3.9-2,1.3-1.3.8-2.6,1.5-3.7,2.2-1.2.7-2.2,1.2-3,1.6-.4.2-.6.3-.8.4-1.7,0-3.6,0-5,0-.2,0-.4,0-.5,0,.2-.1.5-.3.8-.5h0c.9-.6,2-1.2,3-1.8,1.6-1,3.4-2,5.2-3.1,1.1-.7,2.2-1.4,3.2-2l.3-.6-.5-1.6c-.5.4-1.1.7-1.7,1.1-2.4,1.6-5.2,3.2-7.5,4.6-.2.1-.4.2-.6.3h0c-1.3.8-2.2,1.3-2.9,1.8h0c-.6.4-1,.6-1.3.9-.4.3-.6.5-.8.6h0s0,0,0,0c0,0,0,0,0,0,0,0-.1.2-.2.3-.2.3-.1.7,0,1,.1.2.2.3.7.5,0,0,.1,0,.2,0,.2,0,.5.1.9.2,0,0,.2,0,.2,0,.3,0,.6,0,1,0,1.2,0,2.8.1,5.2,0,.2,0,.4,0,.6,0h.2s.2-.1.2-.1c0,0,.7-.3,1.6-.8,3-1.6,9.6-5.2,11.8-7.8.6-.7,1.3-1.8,2-3,0,0,0,0,0-.1,0-.9-.2-2-.3-3.2-1.1,2.2-2.2,4.1-3.1,5.1ZM468.2,438.6h0c0,0-.1,0-.1,0,0,0,0,0,0,0,0,0,0,0,0,0-.2,0-.4,0-.5-.2,0,0,0,0-.1-.1,0,0,0,0-.1-.1l-.6-.9c-.5.2-.9.5-1.4.7-1,.5-2,1.1-3,1.6-.6.3-1.1.6-1.7.9-2.2,1.2-3.8,2.2-4.2,2.5,0,0,0,0,0,0-.5.3-1.1.6-1.7.8h0c-2.2.7-5.5.9-10,.7l.4,1.9c4.6.3,8,0,10.5-.9.6-.2,1.2-.5,1.7-.8,0,0,.2-.1.3-.2.8-.5,2.2-1.3,3.9-2.3.5-.3,1.1-.6,1.7-.9,1.1-.6,2.3-1.3,3.5-1.9.6-.3,1.2-.6,1.7-.9,0,0,.1,0,.2,0,0,0-.1,0-.2,0ZM479.5,443.5h0c-.7.8-1.8,1.7-3.1,2.6-.6.4-1.3.9-2,1.3-1.3.8-2.6,1.5-3.7,2.2-1.2.7-2.2,1.2-3,1.6-.4.2-.6.3-.8.4-1.7,0-3.6,0-5,0-.2,0-.4,0-.5,0,.2-.1.5-.3.8-.5h0c.9-.6,2-1.2,3-1.8,1.6-1,3.4-2,5.2-3.1,1.1-.7,2.2-1.4,3.2-2l.3-.6-.5-1.6c-.5.4-1.1.7-1.7,1.1-2.4,1.6-5.2,3.2-7.5,4.6-.2.1-.4.2-.6.3h0c-1.3.8-2.2,1.3-2.9,1.8h0c-.6.4-1,.6-1.3.9-.4.3-.6.5-.8.6h0s0,0,0,0c0,0,0,0,0,0,0,0-.1.2-.2.3-.2.3-.1.7,0,1,.1.2.2.3.7.5,0,0,.1,0,.2,0,.2,0,.5.1.9.2,0,0,.2,0,.2,0,.3,0,.6,0,1,0,1.2,0,2.8.1,5.2,0,.2,0,.4,0,.6,0h.2s.2-.1.2-.1c0,0,.7-.3,1.6-.8,3-1.6,9.6-5.2,11.8-7.8.6-.7,1.3-1.8,2-3,0,0,0,0,0-.1,0-.9-.2-2-.3-3.2-1.1,2.2-2.2,4.1-3.1,5.1ZM468.2,438.6h0c0,0-.1,0-.1,0,0,0,0,0,0,0,0,0,0,0,0,0-.2,0-.4,0-.5-.2,0,0,0,0-.1-.1,0,0,0,0-.1-.1l-.6-.9c-.5.2-.9.5-1.4.7-1,.5-2,1.1-3,1.6-.6.3-1.1.6-1.7.9-2.2,1.2-3.8,2.2-4.2,2.5,0,0,0,0,0,0-.5.3-1.1.6-1.7.8h0c-2.2.7-5.5.9-10,.7l.4,1.9c4.6.3,8,0,10.5-.9.6-.2,1.2-.5,1.7-.8,0,0,.2-.1.3-.2.8-.5,2.2-1.3,3.9-2.3.5-.3,1.1-.6,1.7-.9,1.1-.6,2.3-1.3,3.5-1.9.6-.3,1.2-.6,1.7-.9,0,0,.1,0,.2,0,0,0-.1,0-.2,0ZM479.5,443.5c-.7.8-1.8,1.7-3.1,2.6-.6.4-1.3.9-2,1.3-1.3.8-2.6,1.5-3.7,2.2-1.2.7-2.2,1.2-3,1.6-.4.2-.6.3-.8.4-1.7,0-3.6,0-5,0-.2,0-.4,0-.5,0,.2-.1.5-.3.8-.5h0c.9-.6,2-1.2,3-1.8,1.6-1,3.4-2,5.2-3.1,1.1-.7,2.2-1.4,3.2-2,.4-.3.8-.6,1.2-.8l.2-2.5c-.5.4-1,.7-1.6,1.1-.5.4-1.1.7-1.7,1.1-2.4,1.6-5.2,3.2-7.5,4.6-.2.1-.4.2-.6.3h0c-1.3.8-2.2,1.3-2.9,1.8h0c-.6.4-1,.6-1.3.9-.4.3-.6.5-.8.6h0s0,0,0,0c0,0,0,0,0,0,0,0-.1.2-.2.3-.2.3-.1.7,0,1,.1.2.2.3.7.5,0,0,.1,0,.2,0,.2,0,.5.1.9.2,0,0,.2,0,.2,0,.3,0,.6,0,1,0,1.2,0,2.8.1,5.2,0,.2,0,.4,0,.6,0h.2s.2-.1.2-.1c0,0,.7-.3,1.6-.8,3-1.6,9.6-5.2,11.8-7.8.6-.7,1.3-1.8,2-3,0,0,0,0,0-.1,0-.9-.2-2-.3-3.2-1.1,2.2-2.2,4.1-3.1,5.1Z"/>
        <path class="cls-3" d="M476.9,439.2l-.2,2.6-.3,4.2v1.9c-.2.4-.4.7-.8.8-.1,0-.3,0-.4,0-.5,0-.9-.5-.9-1v-.5s.3-4.1.3-4.1l.2-2.5c.7-.5,1.4-1,1.9-1.5,0,0,.1-.1.2-.2"/>
        <path class="cls-3" d="M483,425.9c.2.8.7,5.3,1.1,9.2.1,1.3.3,2.6.4,3.6-.5,1.1-1.1,2.1-1.6,3,0,0,0,0,0-.1,0-.9-.2-2-.3-3.2-.5-4.9-1.2-11.2-1.4-12.1-.2-.7-2.5-4.9-5.1-9.4-.5-.8-.9-1.6-1.4-2.4,0,0,0-.1-.1-.2,0,0,0,0-.1.1,0,0,0,0,0,0-.3.4-.5,1.1-.6,1.8-.1,1,0,2,0,2.5,1.2,3.3,3.4,12.4,3.6,13.4,0,0,0,0,0,0,0,0,0,0,0,0h0c0,.1,0,.1,0,.1,0,0,0,0,0,.1,0,0,0,0,0,0v.6c0,0-.2,1.9-.2,1.9-.1,0-.2,0-.4,0-.3,0-.8.1-1.6.4l.2-2v-.7c0,0,0-.2,0-.2-.1-.5-.5-2.1-1-4-.8-3.2-1.9-7.3-2.6-9.2v-.2c0-.3-.3-1.8,0-3.4.1-.6.3-1.3.6-1.8.1-.2.2-.4.4-.6.5-.6,1.2-1,2-1.1h.6s.3.5.3.5c.4.6.9,1.5,1.6,2.6h0c.4.7.9,1.6,1.4,2.4h0c2,3.4,4.1,7.3,4.3,8.2"/>
        <path class="cls-3" d="M468.8,433.1h0s0,0,0,0M477.2,431.8h0l-2.7-3.3-8.9-11-.7.4c-.1,0-1.4.9-1.9,2.8-.5,2.1.2,4.7,2.1,7.7,1.3,2.1,2.3,3.6,3,4.4.3.4.6.7.9,1l.6,2.1.5,1.9c.6-.3,1.2-.6,1.7-.8l-.5-1.9-.7-2.4h0s0,0,0,0c-.2-.2-1.4-1.4-3.9-5.2-2-3.1-2.1-5.1-1.8-6.2.1-.5.3-.8.5-1.1l10.2,12.6.2.3c0,0,.2.2.3.2.3.2.8.2,1.1,0,0,0,0,0,0,0,.2-.2.3-.4.3-.6,0,0,0,0,0,0,0,0,0,0,0-.1,0,0,0,0,0-.1,0,0,0,0,0,0,0,0,0,0,0,0,0-.1,0-.2-.2-.3ZM471.6,443v.3c0,0-1.3,2.8-1.3,2.8l-2.6,5-1,2c0,.1,0,.2,0,.3.2,0,.4,0,.6,0h.2s.2-.1.2-.1c0,0,.7-.3,1.6-.8l1.5-3,2.8-5.4.3-.6-.5-1.6c-.5.4-1.1.7-1.7,1.1Z"/>
        <path class="cls-3" d="M460.6,449.7c.7-.5,1.7-1,2.9-1.8l-1.5,3.1h0s-.2.5-.2.5l-.6,1.3c0,0,0,.1-.1.2-.1.1-.3.2-.4.3-.1,0-.2,0-.3,0,0,0-.2,0-.2,0,0,0,0,0-.1,0-.2,0-.3-.2-.4-.4-.1-.3-.2-.6,0-.8l.3-.6.2-.4.5-1.2h0Z"/>
        <path class="cls-3" d="M468.5,438.5s0,0-.1,0c0,0-.1,0-.2,0,0,0,0,0-.1,0,0,0,0,0,0,0,0,0,0,0,0,0-.2,0-.4,0-.5-.2,0,0,0,0-.1-.1,0,0,0,0-.1-.1l-.6-.9-1.8-2.5h0s-4.7-6.8-4.7-6.8c-.2.2-.5.5-.7.8-.3.5-.6,1.3-.6,2.2,0,.9.2,1.9.9,3.2,1,1.9,1.8,3.8,2.6,5.4.3.6.5,1.2.8,1.8-.6.3-1.1.6-1.7.9-.2-.5-.5-1.1-.7-1.7-.7-1.7-1.6-3.6-2.6-5.5-1.2-2.4-1.2-4.4-.8-5.8.2-.7.6-1.3.9-1.8.8-1.1,1.7-1.6,1.7-1.6l.8-.4,7.7,11.1.5.7c.3.4.2,1-.2,1.3"/>
        <path class="cls-3" d="M459.8,452.6c0,0-.1.1-.2.2,0,0-.2.2-.3.3,0,0,0,0-.1.1-1.8,1.8-5.3,5.4-6.1,7.5-.1.3-.3.4-.5.5-.2,0-.5,0-.7,0-.5-.2-.7-.8-.5-1.3,1.3-3,6.6-8.1,7.2-8.7,0,0,0,0,0,0,0,0,0,0,0,0,0,0,0,0,0,0,.4-.4,1-.3,1.3,0,0,0,0,0,0,0,.3.4.3.9,0,1.3"/>
        <path class="cls-3" d="M326.4,350.2c-.9,1.1.2,2.7,1.6,2.1.2,0,.3-.2.5-.3,1.1-1.2,2.2-2.4,3.3-3.6.2-.2.3-.5.4-.8.2-1.3-1.4-2.1-2.3-1.1-1.2,1.2-2.3,2.5-3.4,3.7M316.1,364.6c-.7,1.3.7,2.7,2,1.8.2-.1.3-.2.4-.4.8-1.4,1.7-2.8,2.6-4.2.8-1.3-.7-2.8-2-1.9-.1,0-.2.2-.3.3-.9,1.4-1.8,2.8-2.7,4.3ZM308.5,380.5c-.5,1.3,1.1,2.5,2.2,1.5.2-.2.3-.3.3-.5.6-1.5,1.2-3.1,1.8-4.6.6-1.4-1.2-2.6-2.2-1.5-.1.1-.2.2-.3.4-.7,1.5-1.3,3.1-1.9,4.7ZM303.9,397.6c-.3,1.5,1.7,2.3,2.5.9,0-.1.1-.3.2-.5.3-1.6.6-3.2,1-4.8.1-.7-.2-1.4-.9-1.6-.7-.3-1.6.2-1.8,1-.4,1.6-.7,3.3-1,5ZM302.4,412.9c0,1.3,1.5,1.9,2.4,1,.2-.3.4-.6.4-.9,0-.9,0-1.8,0-2.7,0-1.5-2.1-2-2.6-.6,0,.1,0,.3,0,.4,0,.9,0,1.9,0,2.8ZM342.9,338.4c.2-.2.4-.4.5-.7.4-1.3-1.1-2.3-2.1-1.5-.7.6-1.5,1.1-2.2,1.7-1.3,1,0,3,1.5,2.3,0,0,.2,0,.2-.2.7-.6,1.4-1.1,2.1-1.7Z"/>
        <path class="cls-3" d="M496.4,391.9c-.4-1.6-2.8-1.3-2.7.4,0,0,0,.2,0,.2.4,1.7.7,3.4,1,5,.3,1.6,2.6,1.5,2.7-.2,0-.1,0-.2,0-.3-.3-1.7-.7-3.5-1.1-5.2M490.4,374.3c-.2-.5-.6-.8-1.2-.8-1,0-1.7,1-1.3,1.9.7,1.6,1.4,3.2,2,4.8.5,1.2,2.3,1.2,2.6-.2,0-.3,0-.5,0-.7-.6-1.7-1.3-3.3-2-4.9ZM481.2,358.2c-.9-1.2-2.8-.3-2.4,1.2,0,.2.1.3.2.4,1,1.4,1.9,2.8,2.8,4.3.8,1.3,2.8.5,2.5-1,0-.2,0-.3-.2-.5-.9-1.5-1.9-3-2.9-4.4ZM472.9,347.9l-2,1.8,2-1.8ZM469.2,344.1c-.2-.2-.5-.3-.8-.4-1.3-.2-2.1,1.4-1.1,2.3,1.2,1.1,2.6,2.5,3.6,3.7,1,1.1,2.9,0,2.3-1.5,0-.2-.1-.3-.3-.4-1.2-1.3-2.4-2.6-3.7-3.8ZM454.8,332.5c-1-.7-2.3.2-2.1,1.4,0,.4.3.7.6.9,1.4.9,2.8,1.9,4.2,3,1.2.9,2.8-.6,1.9-1.9,0-.1-.2-.2-.3-.3-1.4-1.1-2.9-2.1-4.3-3ZM438.4,323.7c-1.3-.6-2.5,1.1-1.5,2.2.1.1.3.3.5.3,1.6.7,3.2,1.4,4.7,2.1,1.5.7,2.7-1.2,1.5-2.3,0,0-.2-.1-.3-.2-1.6-.8-3.2-1.5-4.8-2.2ZM420.7,318.3c-1.5-.3-2.3,1.7-.9,2.5.1,0,.2.1.4.1,1.7.3,3.4.7,5,1.2,1.4.3,2.3-1.3,1.3-2.3-.2-.2-.4-.3-.6-.3-1.7-.5-3.4-.9-5.2-1.2ZM402.2,316.3c-.3,0-.6,0-.9.3-1,.8-.4,2.4.9,2.4,1.7,0,3.4.1,5.2.2,1.4.1,2.1-1.9.7-2.6-.2,0-.3-.1-.5-.2-1.8-.1-3.5-.2-5.3-.2ZM383.7,317.7c-1.4.2-1.6,2.2-.1,2.7.2,0,.4,0,.6,0,1.7-.3,3.4-.6,5.1-.8,1.4-.1,1.7-2.1.3-2.7-.2,0-.4,0-.6,0-1.8.2-3.5.5-5.3.8ZM368.2,321.8c-1.5.6-1,2.8.6,2.7.1,0,.2,0,.3,0,.9-.3,1.7-.6,2.6-.9.6-.2,1-.8,1-1.4,0-.9-.9-1.5-1.8-1.2-.9.3-1.8.6-2.6.9ZM496.2,413.1c0,.8.6,1.3,1.4,1.3.8,0,1.3-.6,1.3-1.4,0-.9,0-1.8,0-2.8,0-1.5-2.2-1.8-2.7-.4,0,.2,0,.3,0,.5,0,.9,0,1.8,0,2.7Z"/>
        <path class="cls-3" d="M335.7,376.7c-.5-.3-.7-1-.4-1.5.3-.5,1-.7,1.5-.4l14.5,8.4c.5.3.7,1,.4,1.5-.3.5-1,.7-1.5.4l-14.5-8.4ZM362.5,349c-.3-.5-.1-1.2.4-1.5.5-.3,1.2-.1,1.5.4l8.4,14.5c.3.5.1,1.2-.4,1.5-.5.3-1.2.1-1.5-.4l-8.4-14.5ZM399.6,338.4c0-.6.5-1.1,1.1-1.1s1.1.5,1.1,1.1v16.8c0,.6-.5,1.1-1.1,1.1s-1.1-.5-1.1-1.1v-16.8ZM437,347.8c.3-.5,1-.7,1.5-.4.5.3.7,1,.4,1.5l-8.4,14.5c-.3.5-1,.7-1.5.4-.5-.3-.7-1-.4-1.5l8.4-14.5ZM464.6,374.6c.5-.3,1.2-.1,1.5.4.3.5.1,1.2-.4,1.5l-14.5,8.4c-.5.3-1.2.1-1.5-.4-.3-.5-.1-1.2.4-1.5l14.5-8.4Z"/>
        <path class="cls-3" d="M322,443.5h0c.7.8,1.8,1.7,3.1,2.6.6.4,1.3.9,2,1.3,1.3.8,2.6,1.5,3.7,2.2,1.2.7,2.2,1.2,3,1.6.4.2.6.3.8.4,1.7,0,3.6,0,5,0,.2,0,.4,0,.5,0-.2-.1-.5-.3-.8-.5h0c-.9-.6-2-1.2-3-1.8-1.6-1-3.4-2-5.2-3.1-1.1-.7-2.2-1.4-3.2-2l-.3-.6.5-1.6c.5.4,1.1.7,1.7,1.1,2.4,1.6,5.2,3.2,7.5,4.6.2.1.4.2.6.3h0c1.3.8,2.2,1.3,2.9,1.8h0c.6.4,1,.6,1.3.9.4.3.6.5.8.6h0s0,0,0,0c0,0,0,0,0,0,0,0,.1.2.2.3.2.3.1.7,0,1-.1.2-.2.3-.7.5,0,0-.1,0-.2,0-.2,0-.5.1-.9.2,0,0-.2,0-.2,0-.3,0-.6,0-1,0-1.2,0-2.8.1-5.2,0-.2,0-.4,0-.6,0h-.2s-.2-.1-.2-.1c0,0-.7-.3-1.6-.8-3-1.6-9.6-5.2-11.8-7.8-.6-.7-1.3-1.8-2-3,0,0,0,0,0-.1,0-.9.2-2,.3-3.2,1.1,2.2,2.2,4.1,3.1,5.1M333.2,438.6h0c0,0,.1,0,.1,0,0,0,0,0,0,0,0,0,0,0,0,0,.2,0,.4,0,.5-.2,0,0,0,0,.1-.1,0,0,0,0,.1-.1l.6-.9c.5.2.9.5,1.4.7,1,.5,2,1.1,3,1.6.6.3,1.1.6,1.7.9,2.2,1.2,3.8,2.2,4.2,2.5,0,0,0,0,0,0,.5.3,1.1.6,1.7.8h0c2.2.7,5.5.9,10,.7l-.4,1.9c-4.6.3-8,0-10.5-.9-.6-.2-1.2-.5-1.7-.8,0,0-.2-.1-.3-.2-.8-.5-2.2-1.3-3.9-2.3-.5-.3-1.1-.6-1.7-.9-1.1-.6-2.3-1.3-3.5-1.9-.6-.3-1.2-.6-1.7-.9,0,0-.1,0-.2,0,0,0,.1,0,.2,0ZM322,443.5h0c.7.8,1.8,1.7,3.1,2.6.6.4,1.3.9,2,1.3,1.3.8,2.6,1.5,3.7,2.2,1.2.7,2.2,1.2,3,1.6.4.2.6.3.8.4,1.7,0,3.6,0,5,0,.2,0,.4,0,.5,0-.2-.1-.5-.3-.8-.5h0c-.9-.6-2-1.2-3-1.8-1.6-1-3.4-2-5.2-3.1-1.1-.7-2.2-1.4-3.2-2l-.3-.6.5-1.6c.5.4,1.1.7,1.7,1.1,2.4,1.6,5.2,3.2,7.5,4.6.2.1.4.2.6.3h0c1.3.8,2.2,1.3,2.9,1.8h0c.6.4,1,.6,1.3.9.4.3.6.5.8.6h0s0,0,0,0c0,0,0,0,0,0,0,0,.1.2.2.3.2.3.1.7,0,1-.1.2-.2.3-.7.5,0,0-.1,0-.2,0-.2,0-.5.1-.9.2,0,0-.2,0-.2,0-.3,0-.6,0-1,0-1.2,0-2.8.1-5.2,0-.2,0-.4,0-.6,0h-.2s-.2-.1-.2-.1c0,0-.7-.3-1.6-.8-3-1.6-9.6-5.2-11.8-7.8-.6-.7-1.3-1.8-2-3,0,0,0,0,0-.1,0-.9.2-2,.3-3.2,1.1,2.2,2.2,4.1,3.1,5.1ZM333.2,438.6h0c0,0,.1,0,.1,0,0,0,0,0,0,0,0,0,0,0,0,0,.2,0,.4,0,.5-.2,0,0,0,0,.1-.1,0,0,0,0,.1-.1l.6-.9c.5.2.9.5,1.4.7,1,.5,2,1.1,3,1.6.6.3,1.1.6,1.7.9,2.2,1.2,3.8,2.2,4.2,2.5,0,0,0,0,0,0,.5.3,1.1.6,1.7.8h0c2.2.7,5.5.9,10,.7l-.4,1.9c-4.6.3-8,0-10.5-.9-.6-.2-1.2-.5-1.7-.8,0,0-.2-.1-.3-.2-.8-.5-2.2-1.3-3.9-2.3-.5-.3-1.1-.6-1.7-.9-1.1-.6-2.3-1.3-3.5-1.9-.6-.3-1.2-.6-1.7-.9,0,0-.1,0-.2,0,0,0,.1,0,.2,0ZM322,443.5h0c.7.8,1.8,1.7,3.1,2.6.6.4,1.3.9,2,1.3,1.3.8,2.6,1.5,3.7,2.2,1.2.7,2.2,1.2,3,1.6.4.2.6.3.8.4,1.7,0,3.6,0,5,0,.2,0,.4,0,.5,0-.2-.1-.5-.3-.8-.5h0c-.9-.6-2-1.2-3-1.8-1.6-1-3.4-2-5.2-3.1-1.1-.7-2.2-1.4-3.2-2l-.3-.6.5-1.6c.5.4,1.1.7,1.7,1.1,2.4,1.6,5.2,3.2,7.5,4.6.2.1.4.2.6.3h0c1.3.8,2.2,1.3,2.9,1.8h0c.6.4,1,.6,1.3.9.4.3.6.5.8.6h0s0,0,0,0c0,0,0,0,0,0,0,0,.1.2.2.3.2.3.1.7,0,1-.1.2-.2.3-.7.5,0,0-.1,0-.2,0-.2,0-.5.1-.9.2,0,0-.2,0-.2,0-.3,0-.6,0-1,0-1.2,0-2.8.1-5.2,0-.2,0-.4,0-.6,0h-.2s-.2-.1-.2-.1c0,0-.7-.3-1.6-.8-3-1.6-9.6-5.2-11.8-7.8-.6-.7-1.3-1.8-2-3,0,0,0,0,0-.1,0-.9.2-2,.3-3.2,1.1,2.2,2.2,4.1,3.1,5.1ZM333.2,438.6h0c0,0,.1,0,.1,0,0,0,0,0,0,0,0,0,0,0,0,0,.2,0,.4,0,.5-.2,0,0,0,0,.1-.1,0,0,0,0,.1-.1l.6-.9c.5.2.9.5,1.4.7,1,.5,2,1.1,3,1.6.6.3,1.1.6,1.7.9,2.2,1.2,3.8,2.2,4.2,2.5,0,0,0,0,0,0,.5.3,1.1.6,1.7.8h0c2.2.7,5.5.9,10,.7l-.4,1.9c-4.6.3-8,0-10.5-.9-.6-.2-1.2-.5-1.7-.8,0,0-.2-.1-.3-.2-.8-.5-2.2-1.3-3.9-2.3-.5-.3-1.1-.6-1.7-.9-1.1-.6-2.3-1.3-3.5-1.9-.6-.3-1.2-.6-1.7-.9,0,0-.1,0-.2,0,0,0,.1,0,.2,0ZM322,443.5h0c.7.8,1.8,1.7,3.1,2.6.6.4,1.3.9,2,1.3,1.3.8,2.6,1.5,3.7,2.2,1.2.7,2.2,1.2,3,1.6.4.2.6.3.8.4,1.7,0,3.6,0,5,0,.2,0,.4,0,.5,0-.2-.1-.5-.3-.8-.5h0c-.9-.6-2-1.2-3-1.8-1.6-1-3.4-2-5.2-3.1-1.1-.7-2.2-1.4-3.2-2-.4-.3-.8-.6-1.2-.8-.7-.5-1.4-1-2-1.4l-.2-2.6c0,0,.1.1.2.2.5.4,1.1.9,1.9,1.5.5.4,1,.7,1.6,1.1.5.4,1.1.7,1.7,1.1,2.4,1.6,5.2,3.2,7.5,4.6.2.1.4.2.6.3h0c1.3.8,2.2,1.3,2.9,1.8h0c.6.4,1,.6,1.3.9.4.3.6.5.8.6h0s0,0,0,0c0,0,0,0,0,0,0,0,.1.2.2.3.2.3.1.7,0,1-.1.2-.2.3-.7.5,0,0-.1,0-.2,0-.2,0-.5.1-.9.2,0,0-.2,0-.2,0-.3,0-.6,0-1,0-1.2,0-2.8.1-5.2,0-.2,0-.4,0-.6,0h-.2s-.2-.1-.2-.1c0,0-.7-.3-1.6-.8-3-1.6-9.6-5.2-11.8-7.8-.6-.7-1.3-1.8-2-3,0,0,0,0,0-.1,0-.9.2-2,.3-3.2,1.1,2.2,2.2,4.1,3.1,5.1ZM304.9,423.3h0c5.5-1.4,9.5,5.1,9.6,5.4h0c0,.2,1.2,3.2,2.8,6.5.5,1.1,1,2.2,1.6,3.3,1.1,2.2,2.2,4.1,3.1,5.1.7.8,1.8,1.7,3.1,2.6.6.4,1.3.9,2,1.3,1.3.8,2.6,1.5,3.7,2.2,1.2.7,2.2,1.2,3,1.6.4.2.6.3.8.4,1.7,0,3.6,0,5,0,.2,0,.4,0,.5,0-.2-.1-.5-.3-.8-.5h0c-.9-.6-2-1.2-3-1.8-1.6-1-3.4-2-5.2-3.1-1.1-.7-2.2-1.4-3.2-2-.4-.3-.8-.6-1.2-.8-.7-.5-1.4-1-2-1.4-.5-.4-.9-.7-1.3-1-2.9-2.6-3.1-4.4-2.7-5.5.4-1.2,1.7-2,3.3-2.2,0,0,.2,0,.3,0,0,0,.1,0,.2,0,.2,0,.5,0,.9.1.2,0,.4,0,.6.2,1.1.3,2.5.9,4.1,1.7.6.3,1.2.5,1.7.8.4.2.9.4,1.3.6.4.2.9.5,1.3.7.1,0,.2.1.4.2.5.2.9.5,1.4.7,1,.5,2,1.1,3,1.6.6.3,1.1.6,1.7.9,2.2,1.2,3.8,2.2,4.2,2.5,0,0,0,0,0,0,.5.3,1.1.6,1.7.8h0c2.2.7,5.5.9,10,.7.6,0,1.3,0,2-.1.3,0,.6,0,.8,0,3-.3,5.8,0,8.3.9.7.2,1.3.5,2,.7,4.1,1.8,7.2,4.7,8.9,7.6,2.4,4.1,11.8,9.6,13.9,10.8l-1.1,1.6c-2.4-1.4-11.8-7-14.4-11.4-1.4-2.4-3.9-4.8-7.1-6.4-.6-.3-1.3-.6-2-.9-2.5-.9-5.3-1.3-8.3-1.1-.5,0-.9,0-1.4.1-.7,0-1.3.1-2,.1-4.6.3-8,0-10.5-.9-.6-.2-1.2-.5-1.7-.8,0,0-.2-.1-.3-.2-.8-.5-2.2-1.3-3.9-2.3-.5-.3-1.1-.6-1.7-.9-1.1-.6-2.3-1.3-3.5-1.9-.6-.3-1.2-.6-1.7-.9,0,0-.1,0-.2,0-.6-.3-1.1-.6-1.7-.8-.6-.3-1.2-.6-1.7-.8-1.3-.6-2.5-1.2-3.5-1.5-.7-.3-1.3-.4-1.6-.4-.1,0-.2,0-.4,0-.8.1-1.5.4-1.6.9,0,.3-.2,1.3,2,3.3,0,0,.1.1.2.2.5.4,1.1.9,1.9,1.5.5.4,1,.7,1.6,1.1.5.4,1.1.7,1.7,1.1,2.4,1.6,5.2,3.2,7.5,4.6.2.1.4.2.6.3h0c1.3.8,2.2,1.3,2.9,1.8h0c.6.4,1,.6,1.3.9.4.3.6.5.8.6h0s0,0,0,0c0,0,0,0,0,0,0,0,.1.2.2.3.2.3.1.7,0,1-.1.2-.2.3-.7.5,0,0-.1,0-.2,0-.2,0-.5.1-.9.2,0,0-.2,0-.2,0-.3,0-.6,0-1,0-1.2,0-2.8.1-5.2,0-.2,0-.4,0-.6,0h-.2s-.2-.1-.2-.1c0,0-.7-.3-1.6-.8-3-1.6-9.6-5.2-11.8-7.8-.6-.7-1.3-1.8-2-3-.5-.9-1.1-2-1.6-3-2-4-3.8-8.5-4.1-9.2-.3-.5-3-4.6-6.4-4.6l9.3,22.7h0c0,.1,0,.2,0,.2,0,0,.5,3.4,5.7,6.7,4,2.5,10,6.7,13.4,9,.6.4,1.1.8,1.5,1.1.3.2.5.4.7.5,2.4.2,19.7,1.4,32.9,5.3.7.2,1.3.4,2,.6.3,0,.5.2.8.3h.3c0,0,8.3,10,8.3,10l-1.5,1.2-8-9.5c-14.1-4.7-34.9-6-35.2-6h-.3s-.2-.2-.2-.2c-.1,0-10.1-7.1-15.7-10.7-5.5-3.5-6.4-7.1-6.5-7.9l-10.2-24.7,1.1-.3ZM334.9,439.6h0c-.6-.3-1.2-.6-1.7-.9,0,0-.1,0-.2,0,0,0,.1,0,.2,0,0,0,.1,0,.1,0,0,0,0,0,0,0,0,0,0,0,0,0,.2,0,.4,0,.5-.2,0,0,0,0,.1-.1,0,0,0,0,.1-.1l.6-.9c.5.2.9.5,1.4.7,1,.5,2,1.1,3,1.6-.3.6-.5,1.2-.8,1.8-1.1-.6-2.3-1.3-3.5-1.9ZM322,443.5h0c.7.8,1.8,1.7,3.1,2.6.6.4,1.3.9,2,1.3,1.3.8,2.6,1.5,3.7,2.2,1.2.7,2.2,1.2,3,1.6.4.2.6.3.8.4,1.7,0,3.6,0,5,0,.2,0,.4,0,.5,0-.2-.1-.5-.3-.8-.5h0c-.9-.6-2-1.2-3-1.8-1.6-1-3.4-2-5.2-3.1-1.1-.7-2.2-1.4-3.2-2-.4-.3-.8-.6-1.2-.8-.7-.5-1.4-1-2-1.4-.5-.4-.9-.7-1.3-1-2.9-2.6-3.1-4.4-2.7-5.5.4-1.2,1.7-2,3.3-2.2,0,0,.2,0,.3,0,0,0,0,0,0,0,.3.3.7.3,1.1,0,.2,0,.4,0,.6.2,1.1.3,2.5.9,4.1,1.7l-.5,1.9c-1.3-.6-2.5-1.2-3.5-1.5-.7-.3-1.3-.4-1.6-.4-.1,0-.2,0-.4,0-.8.1-1.5.4-1.6.9,0,.3-.2,1.3,2,3.3,0,0,.1.1.2.2.5.4,1.1.9,1.9,1.5.5.4,1,.7,1.6,1.1.5.4,1.1.7,1.7,1.1,2.4,1.6,5.2,3.2,7.5,4.6.2.1.4.2.6.3h0c1.3.8,2.2,1.3,2.9,1.8h0c.6.4,1,.6,1.3.9.4.3.6.5.8.6h0s0,0,0,0c0,0,0,0,0,0,0,0,.1.2.2.3.2.3.1.7,0,1-.1.2-.2.3-.7.5,0,0-.1,0-.2,0-.2,0-.5.1-.9.2,0,0-.2,0-.2,0-.3,0-.6,0-1,0-1.2,0-2.8.1-5.2,0-.2,0-.4,0-.6,0h-.2s-.2-.1-.2-.1c0,0-.7-.3-1.6-.8-3-1.6-9.6-5.2-11.8-7.8-.6-.7-1.3-1.8-2-3,0,0,0,0,0-.1,0-.9.2-2,.3-3.2,1.1,2.2,2.2,4.1,3.1,5.1ZM337.3,447.6h0c.2.1.4.2.6.3h0c1.3.8,2.2,1.3,2.9,1.8h0c.6.4,1,.6,1.3.9.4.3.6.5.8.6h0s0,0,0,0c0,0,0,0,0,0,0,0,.1.2.2.3.2.3.1.7,0,1-.1.2-.2.3-.7.5,0,0-.1,0-.2,0-.2,0-.5.1-.9.2,0,0-.2,0-.2,0-.3,0-.6,0-1,0-1.2,0-2.8.1-5.2,0,0-.1,0-.2,0-.3l-1-2c.4.2.6.3.8.4,1.7,0,3.6,0,5,0,.2,0,.4,0,.5,0-.2-.1-.5-.3-.8-.5h0c-.9-.6-2-1.2-3-1.8-1.6-1-3.4-2-5.2-3.1l-1.4-2.8v-.3c2.5,1.6,5.3,3.2,7.6,4.6ZM333.2,438.6h0c0,0,.1,0,.1,0,0,0,0,0,0,0,0,0,0,0,0,0,.2,0,.4,0,.5-.2,0,0,0,0,.1-.1,0,0,0,0,.1-.1l.6-.9c.5.2.9.5,1.4.7,1,.5,2,1.1,3,1.6.6.3,1.1.6,1.7.9,2.2,1.2,3.8,2.2,4.2,2.5,0,0,0,0,0,0,.5.3,1.1.6,1.7.8h0c2.2.7,5.5.9,10,.7l-.4,1.9c-4.6.3-8,0-10.5-.9-.6-.2-1.2-.5-1.7-.8,0,0-.2-.1-.3-.2-.8-.5-2.2-1.3-3.9-2.3-.5-.3-1.1-.6-1.7-.9-1.1-.6-2.3-1.3-3.5-1.9-.6-.3-1.2-.6-1.7-.9,0,0-.1,0-.2,0,0,0,.1,0,.2,0ZM322,443.5h0c.7.8,1.8,1.7,3.1,2.6.6.4,1.3.9,2,1.3,1.3.8,2.6,1.5,3.7,2.2,1.2.7,2.2,1.2,3,1.6.4.2.6.3.8.4,1.7,0,3.6,0,5,0,.2,0,.4,0,.5,0-.2-.1-.5-.3-.8-.5h0c-.9-.6-2-1.2-3-1.8-1.6-1-3.4-2-5.2-3.1-1.1-.7-2.2-1.4-3.2-2l-.3-.6.5-1.6c.5.4,1.1.7,1.7,1.1,2.4,1.6,5.2,3.2,7.5,4.6.2.1.4.2.6.3h0c1.3.8,2.2,1.3,2.9,1.8h0c.6.4,1,.6,1.3.9.4.3.6.5.8.6h0s0,0,0,0c0,0,0,0,0,0,0,0,.1.2.2.3.2.3.1.7,0,1-.1.2-.2.3-.7.5,0,0-.1,0-.2,0-.2,0-.5.1-.9.2,0,0-.2,0-.2,0-.3,0-.6,0-1,0-1.2,0-2.8.1-5.2,0-.2,0-.4,0-.6,0h-.2s-.2-.1-.2-.1c0,0-.7-.3-1.6-.8-3-1.6-9.6-5.2-11.8-7.8-.6-.7-1.3-1.8-2-3,0,0,0,0,0-.1,0-.9.2-2,.3-3.2,1.1,2.2,2.2,4.1,3.1,5.1ZM333.2,438.6h0c0,0,.1,0,.1,0,0,0,0,0,0,0,0,0,0,0,0,0,.2,0,.4,0,.5-.2,0,0,0,0,.1-.1,0,0,0,0,.1-.1l.6-.9c.5.2.9.5,1.4.7,1,.5,2,1.1,3,1.6.6.3,1.1.6,1.7.9,2.2,1.2,3.8,2.2,4.2,2.5,0,0,0,0,0,0,.5.3,1.1.6,1.7.8h0c2.2.7,5.5.9,10,.7l-.4,1.9c-4.6.3-8,0-10.5-.9-.6-.2-1.2-.5-1.7-.8,0,0-.2-.1-.3-.2-.8-.5-2.2-1.3-3.9-2.3-.5-.3-1.1-.6-1.7-.9-1.1-.6-2.3-1.3-3.5-1.9-.6-.3-1.2-.6-1.7-.9,0,0-.1,0-.2,0,0,0,.1,0,.2,0ZM322,443.5h0c.7.8,1.8,1.7,3.1,2.6.6.4,1.3.9,2,1.3,1.3.8,2.6,1.5,3.7,2.2,1.2.7,2.2,1.2,3,1.6.4.2.6.3.8.4,1.7,0,3.6,0,5,0,.2,0,.4,0,.5,0-.2-.1-.5-.3-.8-.5h0c-.9-.6-2-1.2-3-1.8-1.6-1-3.4-2-5.2-3.1-1.1-.7-2.2-1.4-3.2-2l-.3-.6.5-1.6c.5.4,1.1.7,1.7,1.1,2.4,1.6,5.2,3.2,7.5,4.6.2.1.4.2.6.3h0c1.3.8,2.2,1.3,2.9,1.8h0c.6.4,1,.6,1.3.9.4.3.6.5.8.6h0s0,0,0,0c0,0,0,0,0,0,0,0,.1.2.2.3.2.3.1.7,0,1-.1.2-.2.3-.7.5,0,0-.1,0-.2,0-.2,0-.5.1-.9.2,0,0-.2,0-.2,0-.3,0-.6,0-1,0-1.2,0-2.8.1-5.2,0-.2,0-.4,0-.6,0h-.2s-.2-.1-.2-.1c0,0-.7-.3-1.6-.8-3-1.6-9.6-5.2-11.8-7.8-.6-.7-1.3-1.8-2-3,0,0,0,0,0-.1,0-.9.2-2,.3-3.2,1.1,2.2,2.2,4.1,3.1,5.1ZM333.2,438.6h0c0,0,.1,0,.1,0,0,0,0,0,0,0,0,0,0,0,0,0,.2,0,.4,0,.5-.2,0,0,0,0,.1-.1,0,0,0,0,.1-.1l.6-.9c.5.2.9.5,1.4.7,1,.5,2,1.1,3,1.6.6.3,1.1.6,1.7.9,2.2,1.2,3.8,2.2,4.2,2.5,0,0,0,0,0,0,.5.3,1.1.6,1.7.8h0c2.2.7,5.5.9,10,.7l-.4,1.9c-4.6.3-8,0-10.5-.9-.6-.2-1.2-.5-1.7-.8,0,0-.2-.1-.3-.2-.8-.5-2.2-1.3-3.9-2.3-.5-.3-1.1-.6-1.7-.9-1.1-.6-2.3-1.3-3.5-1.9-.6-.3-1.2-.6-1.7-.9,0,0-.1,0-.2,0,0,0,.1,0,.2,0ZM322,443.5c.7.8,1.8,1.7,3.1,2.6.6.4,1.3.9,2,1.3,1.3.8,2.6,1.5,3.7,2.2,1.2.7,2.2,1.2,3,1.6.4.2.6.3.8.4,1.7,0,3.6,0,5,0,.2,0,.4,0,.5,0-.2-.1-.5-.3-.8-.5h0c-.9-.6-2-1.2-3-1.8-1.6-1-3.4-2-5.2-3.1-1.1-.7-2.2-1.4-3.2-2-.4-.3-.8-.6-1.2-.8l-.2-2.5c.5.4,1,.7,1.6,1.1.5.4,1.1.7,1.7,1.1,2.4,1.6,5.2,3.2,7.5,4.6.2.1.4.2.6.3h0c1.3.8,2.2,1.3,2.9,1.8h0c.6.4,1,.6,1.3.9.4.3.6.5.8.6h0s0,0,0,0c0,0,0,0,0,0,0,0,.1.2.2.3.2.3.1.7,0,1-.1.2-.2.3-.7.5,0,0-.1,0-.2,0-.2,0-.5.1-.9.2,0,0-.2,0-.2,0-.3,0-.6,0-1,0-1.2,0-2.8.1-5.2,0-.2,0-.4,0-.6,0h-.2s-.2-.1-.2-.1c0,0-.7-.3-1.6-.8-3-1.6-9.6-5.2-11.8-7.8-.6-.7-1.3-1.8-2-3,0,0,0,0,0-.1,0-.9.2-2,.3-3.2,1.1,2.2,2.2,4.1,3.1,5.1Z"/>
        <path class="cls-3" d="M324.5,439.2l.2,2.6.3,4.2v1.9c.2.4.4.7.8.8.1,0,.3,0,.4,0,.5,0,.9-.5.9-1v-.5s-.3-4.1-.3-4.1l-.2-2.5c-.7-.5-1.4-1-1.9-1.5,0,0-.1-.1-.2-.2"/>
        <path class="cls-3" d="M318.4,425.9c-.2.8-.7,5.3-1.1,9.2-.1,1.3-.3,2.6-.4,3.6.5,1.1,1.1,2.1,1.6,3,0,0,0,0,0-.1,0-.9.2-2,.3-3.2.5-4.9,1.2-11.2,1.4-12.1.2-.7,2.5-4.9,5.1-9.4.5-.8.9-1.6,1.4-2.4,0,0,0-.1.1-.2,0,0,0,0,.1.1,0,0,0,0,0,0,.3.4.5,1.1.6,1.8.1,1,0,2,0,2.5-1.2,3.3-3.4,12.4-3.6,13.4,0,0,0,0,0,0,0,0,0,0,0,0h0c0,.1,0,.1,0,.1,0,0,0,0,0,.1,0,0,0,0,0,0v.6c0,0,.2,1.9.2,1.9.1,0,.2,0,.4,0,.3,0,.8.1,1.6.4l-.2-2v-.7c0,0,0-.2,0-.2.1-.5.5-2.1,1-4,.8-3.2,1.9-7.3,2.6-9.2v-.2c0-.3.3-1.8,0-3.4-.1-.6-.3-1.3-.6-1.8-.1-.2-.2-.4-.4-.6-.5-.6-1.2-1-2-1.1h-.6s-.3.5-.3.5c-.4.6-.9,1.5-1.6,2.6h0c-.4.7-.9,1.6-1.4,2.4h0c-2,3.4-4.1,7.3-4.3,8.2"/>
        <path class="cls-3" d="M332.6,433.1h0s0,0,0,0M324.2,431.8h0l2.7-3.3,8.9-11,.7.4c.1,0,1.4.9,1.9,2.8.5,2.1-.2,4.7-2.1,7.7-1.3,2.1-2.3,3.6-3,4.4-.3.4-.6.7-.9,1l-.6,2.1-.5,1.9c-.6-.3-1.2-.6-1.7-.8l.5-1.9.7-2.4h0s0,0,0,0c.2-.2,1.4-1.4,3.9-5.2,2-3.1,2.1-5.1,1.8-6.2-.1-.5-.3-.8-.5-1.1l-10.2,12.6-.2.3c0,0-.2.2-.3.2-.3.2-.8.2-1.1,0,0,0,0,0,0,0-.2-.2-.3-.4-.3-.6,0,0,0,0,0,0,0,0,0,0,0-.1,0,0,0,0,0-.1,0,0,0,0,0,0,0,0,0,0,0,0,0-.1,0-.2.2-.3ZM329.8,443v.3c0,0,1.3,2.8,1.3,2.8l2.6,5,1,2c0,.1,0,.2,0,.3-.2,0-.4,0-.6,0h-.2s-.2-.1-.2-.1c0,0-.7-.3-1.6-.8l-1.5-3-2.8-5.4-.3-.6.5-1.6c.5.4,1.1.7,1.7,1.1Z"/>
        <path class="cls-3" d="M340.8,449.7c-.7-.5-1.7-1-2.9-1.8l1.5,3.1h0s.2.5.2.5l.6,1.3c0,0,0,.1.1.2.1.1.3.2.4.3.1,0,.2,0,.3,0,0,0,.2,0,.2,0,0,0,0,0,.1,0,.2,0,.3-.2.4-.4.1-.3.2-.6,0-.8l-.3-.6-.2-.4-.5-1.2h0Z"/>
        <path class="cls-3" d="M332.9,438.5s0,0,.1,0c0,0,.1,0,.2,0,0,0,0,0,.1,0,0,0,0,0,0,0,0,0,0,0,0,0,.2,0,.4,0,.5-.2,0,0,0,0,.1-.1,0,0,0,0,.1-.1l.6-.9,1.8-2.5h0s4.7-6.8,4.7-6.8c.2.2.5.5.7.8.3.5.6,1.3.6,2.2,0,.9-.2,1.9-.9,3.2-1,1.9-1.8,3.8-2.6,5.4-.3.6-.5,1.2-.8,1.8.6.3,1.1.6,1.7.9.2-.5.5-1.1.7-1.7.7-1.7,1.6-3.6,2.6-5.5,1.2-2.4,1.2-4.4.8-5.8-.2-.7-.6-1.3-.9-1.8-.8-1.1-1.7-1.6-1.7-1.6l-.8-.4-7.7,11.1-.5.7c-.3.4-.2,1,.2,1.3"/>
        <path class="cls-3" d="M341.6,452.6c0,0,.1.1.2.2,0,0,.2.2.3.3,0,0,0,0,.1.1,1.8,1.8,5.3,5.4,6.1,7.5.1.3.3.4.5.5.2,0,.5,0,.7,0,.5-.2.7-.8.5-1.3-1.3-3-6.6-8.1-7.2-8.7,0,0,0,0,0,0,0,0,0,0,0,0,0,0,0,0,0,0-.4-.4-1-.3-1.3,0,0,0,0,0,0,0-.3.4-.3.9,0,1.3"/>
      </g>
    </g>
  </g>
</svg>