<?xml version="1.0" encoding="UTF-8"?>
<svg xmlns="http://www.w3.org/2000/svg" version="1.1" viewBox="0 0 841.9 595.3">
  <defs>
    <style>
      .cls-1 {
        fill-rule: evenodd;
      }

      .cls-1, .cls-2 {
        fill: #599d90;
      }

      .cls-3 {
        fill: #ca6aa1;
      }
    </style>
  </defs>
  <!-- Generator: Adobe Illustrator 28.7.2, SVG Export Plug-In . SVG Version: 1.2.0 Build 154)  -->
  <g>
    <g id="Camada_1">
      <g>
        <path class="cls-2" d="M204.3,318.1l6.6-17.1,6.6,17.1h-13.2ZM229.1,336l-15.9-39.8h-4.3l1.5,3.9-11.8,30.6-3.7,2.2v.5h7.1v-.5l-2.7-2.1,4.7-12.1h13.7l7.2,17.6-2,1.5v.5h8.9v-.5l-2.8-1.8Z"/>
        <path class="cls-2" d="M257.1,331.5v-15.9c0-6.9-4.8-9.7-9.8-9.7s-7,1.5-9.9,4v-4h-.5l-5.2,2.2v.5l1.7,1.1v21.8l-1.7,1.4v.5h7.3v-.5l-1.7-1.4v-17.2c.8-4.3,4-7.4,8.5-7.4s7.3,3.6,7.3,8.4v16.2l-1.7,1.4v.5h7.4v-.5l-1.7-1.4Z"/>
        <path class="cls-2" d="M283.1,331.3c-1.9,1.2-3.6,1.8-5.3,2-5.5.4-10.6-3.7-12.1-11.2-2-9.9,2.8-15.4,8.9-15.4s6.1,1.1,8.5,3.7v21ZM287.1,331.5v-37.5h-.5l-5.2,2.2v.5l1.7,1.1v9.6c-2.3-.9-5.1-1.5-7.3-1.5-9.4,0-14.4,6.8-14.4,13.7s4.1,14.5,14.3,14.5,5.2-.7,7.4-2v1.3h5.6v-.5l-1.7-1.4Z"/>
        <path class="cls-2" d="M307.4,306c-3.7,0-6.8,1.3-9.8,4v-4h-.5l-5.2,2.2v.5l1.6,1.1v21.8l-1.6,1.4v.5h7.3v-.5l-1.7-1.4v-17.2c.6-3.2,3-7,6.8-7s4,.8,6.4,3.4l1.1-3.9c-1.3-.6-2.9-.9-4.5-.9"/>
        <path class="cls-2" d="M331.6,295.5c-.5-.6-1.4-1-2.5,0-3.3,2.9-5.5,4.9-6.4,6l.3.5c1.2-.5,4-1.8,7.9-4,1.3-.7,1.2-1.7.7-2.4M325,306.9c4.4-1.1,8.7.4,8.7,5.8s-7.7,10.2-14.9,13.9c-.8-1.5-1.4-3.3-1.6-4.8-1.3-6.5,1.5-13.3,7.8-14.9ZM338.1,329.1c-2.2,2.2-4.6,3.5-8,3.9-4.3.5-7.3-1.2-9.8-4.2l-.4-.6c-.3-.3-.4-.6-.6-1,7.1-3.5,18.5-7.7,18.5-14s-5.2-7.3-10-7.3c-9.4,0-14.8,7.3-14.8,14.3s5.4,14,14.8,14,8.1-1.9,10.9-4.7l-.5-.4Z"/>
        <path class="cls-2" d="M344,303.2c1.3,0,2.4-1.1,2.4-2.4s-1.1-2.5-2.4-2.5-2.4,1.1-2.4,2.5,1.1,2.4,2.4,2.4M346.4,331.5v-25.6h-.5l-5.2,2.2v.5l1.6,1.1v21.8l-1.6,1.4v.5h7.3v-.5l-1.7-1.4Z"/>
        <path class="cls-2" d="M369.7,319.6c-.6,4.9-3.8,12.9-9.4,12.9s-5.5-2.8-5.5-5.8c0-7.2,9.9-10.9,14.8-13.2v6.1ZM373.6,331.5v-15.8c0-9.4-6.8-9.8-9.4-9.8s-8.2.8-11.6,3.1l1.3,3.5c3.9-3.9,7.7-6,10.8-6,5.5,0,4.9,6.1,4.9,6.1-1.6,1.1-18.1,5.4-18.9,14.3-.4,4.8,4,7.2,7.7,7.2,6.8,0,9.9-6.1,11.2-10.7v10h5.6v-.5l-1.7-1.4Z"/>
        <polygon class="cls-2" points="434.7 296.7 434.7 296.2 429.1 296.2 416.7 328.9 403 296.2 396.9 296.2 396.9 296.7 399.6 298.8 399.6 330.9 396.2 333 396.2 333.5 403.6 333.5 403.6 333 400.2 330.9 400.2 299.9 414.2 333.5 415.6 333.5 429.1 298 429.1 336.5 427.4 337.9 427.4 338.4 434.7 338.4 434.7 337.9 433 336.5 433 298.1 434.7 296.7"/>
        <path class="cls-2" d="M456.3,319.6c-.6,4.9-3.8,12.9-9.4,12.9s-5.5-2.8-5.5-5.8c0-7.2,9.9-10.9,14.8-13.2v6.1ZM460.2,331.5v-15.8c0-9.4-6.8-9.8-9.4-9.8s-8.2.8-11.6,3.1l1.3,3.5c3.9-3.9,7.7-6,10.8-6,5.5,0,4.9,6.1,4.9,6.1-1.6,1.1-18.1,5.4-18.9,14.3-.4,4.8,4,7.2,7.7,7.2,6.8,0,9.9-6.1,11.2-10.7v10h5.6v-.5l-1.7-1.4Z"/>
        <path class="cls-2" d="M480,306c-3.7,0-6.8,1.3-9.8,4v-4h-.5l-5.2,2.2v.5l1.6,1.1v21.8l-1.6,1.4v.5h7.3v-.5l-1.7-1.4v-17.2c.6-3.2,3-7,6.8-7s4,.8,6.4,3.4l1.1-3.9c-1.3-.6-2.9-.9-4.5-.9"/>
        <path class="cls-2" d="M492.6,327v-20.4h4.4v-.6h-4.4v-4.5h-.5l-6.5,4.5v.6h3v19.8c0,6.7,5.1,7.6,8.8,7.4v-.6c-3.9,0-4.8-3.1-4.8-6.2"/>
        <path class="cls-2" d="M502.2,303.2c1.3,0,2.4-1.1,2.4-2.4s-1.1-2.5-2.4-2.5-2.4,1.1-2.4,2.5,1.1,2.4,2.4,2.4M504.6,331.5v-25.6h-.5l-5.2,2.2v.5l1.6,1.1v21.8l-1.6,1.4v.5h7.3v-.5l-1.7-1.4Z"/>
        <path class="cls-2" d="M534.4,331.5v-15.9c0-6.9-4.8-9.7-9.8-9.7s-7,1.5-9.9,4v-4h-.5l-5.2,2.2v.5l1.7,1.1v21.8l-1.7,1.4v.5h7.3v-.5l-1.7-1.4v-17.2c.8-4.3,4-7.4,8.5-7.4s7.3,3.6,7.3,8.4v16.2l-1.7,1.4v.5h7.4v-.5l-1.7-1.4Z"/>
        <path class="cls-2" d="M548.4,306.6c4.3,0,7.2,2.6,9.8,6l1.3-4c-4.5-2.3-8.4-2.6-10.6-2.6-4.3,0-9,2.6-8.9,7.1.3,7.7,17.7,9,17.7,15.5s-3.8,4.9-7.3,4.9-8.4-2.7-11.4-6.8l-1.3,4c3.7,2.5,8.2,3.5,11.8,3.5,5.3,0,11.5-2.4,11.5-7.5,0-7.7-16.5-9.7-17.8-15.2-.7-3.1,2.4-4.9,5.2-4.9"/>
        <path class="cls-2" d="M295.3,383.8c-1.9,1.2-3.6,1.8-5.3,2-5.5.4-10.6-3.7-12.1-11.2-2-9.9,2.8-15.4,8.9-15.4s6.1,1.1,8.5,3.7v21ZM299.2,384.1v-37.5h-.5l-5.2,2.2v.5l1.7,1.1v9.6c-2.3-.9-5.1-1.5-7.3-1.5-9.4,0-14.4,6.8-14.4,13.7s4.1,14.5,14.3,14.5,5.2-.7,7.4-2v1.3h5.6v-.5l-1.7-1.4Z"/>
        <path class="cls-2" d="M320.5,385.8c-6.4,1.4-11.4-4.7-12.7-11.4-1.3-6.5.9-13.6,7.2-14.9,6.4-1.4,11.3,4.6,12.7,11.3,1.4,6.5-.7,13.7-7.1,15.1M317.7,358.5c-9.4,0-14.1,7.4-14.1,14.3s4.7,13.9,14.1,13.9,14.1-7,14.1-13.9-4.7-14.3-14.1-14.3Z"/>
        <path class="cls-2" d="M381.7,379.7c-2.7,3-6.1,5.1-10.1,5.6-10,1.4-16-6.9-17.3-15.4-1.6-9.7,2.4-19.1,11-20.8,5-1,10.3,1,13.7,5.7h.5l-1.6-5.6c-3-.6-6.3-1.2-9.5-1.2-9.9,0-18.5,8.8-18.5,19.4s7.7,19.4,18.4,19.4,10.8-2.8,14-6.5l-.6-.5Z"/>
        <path class="cls-2" d="M400.3,385.8c-6.4,1.4-11.4-4.7-12.7-11.4-1.3-6.5.9-13.6,7.2-14.9,6.4-1.4,11.3,4.6,12.7,11.3,1.4,6.5-.7,13.7-7.1,15.1M397.5,358.5c-9.4,0-14.1,7.4-14.1,14.3s4.7,13.9,14.1,13.9,14.1-7,14.1-13.9-4.7-14.3-14.1-14.3Z"/>
        <path class="cls-2" d="M439.1,384.1v-25.6h-.5l-5.2,2.2v.5l1.7,1.1v18.9c-1.2,1.8-4.3,4.6-8.8,4.6s-7-3.6-7-8.4v-18.9h-.5l-5.2,2.2v.5l1.7,1.1v14.8c0,6.9,4.7,9.6,9.8,9.6s7-1.6,9.9-4.1v3.4h5.7v-.5l-1.7-1.4Z"/>
        <path class="cls-2" d="M449.4,384v-24.8h4.4v-.6h-4.4v-4.5h-.5l-6.5,4.5v.6h3v24.2c0,6.7,5.1,7.6,8.8,7.4v-.6c-3.9,0-4.8-3.1-4.8-6.2"/>
        <path class="cls-2" d="M471.1,385.8c-6.4,1.4-11.4-4.7-12.7-11.4-1.3-6.5.9-13.6,7.2-14.9,6.4-1.4,11.3,4.6,12.7,11.3,1.4,6.5-.7,13.7-7.1,15.1M468.4,358.5c-9.4,0-14.1,7.4-14.1,14.3s4.7,13.9,14.1,13.9,14.1-7,14.1-13.9-4.7-14.3-14.1-14.3Z"/>
        <path class="cls-2" d="M376.6,221.4c-1.9-4.2-4.6-7.8-8-10.6-3.7-3.1-8.2-5.2-12.9-6.2-2.4-.5-4.8-.6-7.3-.5-2,.1-4.1.4-6.1,1,.9,2,1.9,3.8,3.2,5.5,1.5,2,3.2,3.8,5.1,5.4,3.7,3,8.2,5.1,12.9,5.9,4.3.8,8.7.7,13.1-.6M379.3,221.4c4.4,1.2,8.9,1.4,13.1.6,4.7-.9,9.1-2.9,12.9-5.9,1.9-1.5,3.6-3.3,5.1-5.4,1.2-1.7,2.3-3.5,3.2-5.5-2-.6-4.1-.9-6.1-1-2.5-.1-4.9,0-7.3.5-4.8.9-9.2,3.1-12.9,6.2-3.4,2.8-6.1,6.4-8,10.6ZM370.3,176.4l6.7,5.7v-13.1c-2.7,1.9-4.9,4.3-6.5,7l-.2.4ZM367.6,185.2l9.4,7.7v-8.1l-7.6-6.5c-.9,2.2-1.5,4.5-1.7,6.9ZM377,195.5l-9.4-7.7c.1,3.7,1.2,7.2,2.9,10.3,1.6,2.8,3.8,5.2,6.5,7.1v-9.6ZM385.7,176.4l-.2-.4c-1.6-2.8-3.8-5.2-6.5-7v13.1l6.7-5.7ZM388.4,185.2c-.2-2.4-.8-4.7-1.7-6.9l-7.6,6.5v8.1l9.4-7.7ZM387.3,199.1c-2,3.4-4.8,6.4-8.3,8.5v9.8c1.9-3.2,4.2-5.9,6.9-8.1,4-3.3,8.8-5.6,13.9-6.6,2.5-.5,5.1-.7,7.8-.5,2.5.1,5.1.6,7.6,1.4,0,0,.1,0,.2,0,.5.2.8.8.6,1.3-1,2.5-2.3,4.9-3.9,7-1.6,2.2-3.5,4.1-5.5,5.8-4,3.2-8.7,5.4-13.8,6.4-4.5.8-9.1.7-13.7-.5v11.7c0,.6-.5,1-1,1s-1-.5-1-1v-11.7c-4.7,1.3-9.4,1.4-13.9.6-5-1-9.8-3.1-13.8-6.4-2.1-1.7-3.9-3.6-5.5-5.8-1.5-2.1-2.9-4.4-3.9-7h0c-.2-.6.1-1.2.7-1.3,2.5-.8,5.1-1.3,7.7-1.4,2.6-.2,5.3,0,7.8.5,5.1,1,9.9,3.3,13.9,6.6,2.8,2.3,5.2,5.2,7.1,8.5v-10.1c-3.5-2.1-6.3-5.1-8.3-8.5-2.1-3.6-3.2-7.7-3.2-12s.9-7.5,2.6-10.8h0c.2-.4.4-.8.6-1.2h0c2.1-3.6,5-6.6,8.7-8.8.2-.1.4-.2.6-.2s.4,0,.6.2c3.7,2.1,6.6,5.2,8.7,8.7h0c.2.4.4.8.6,1.2h0c1.7,3.4,2.6,7.1,2.6,10.9s-1.1,8.4-3.2,12ZM379,205.1c2.7-1.9,4.9-4.3,6.5-7.1,1.8-3.1,2.8-6.6,2.9-10.3l-9.4,7.7v9.6Z"/>
        <polygon class="cls-1" points="334.2 127.9 338.2 132.3 344 131.8 339.7 135.8 340.1 141.6 336.1 137.3 330.3 137.7 334.7 133.7 334.2 127.9"/>
        <path class="cls-3" d="M449.8,238.6h0c-.6.7-1.6,1.5-2.8,2.3-.6.4-1.2.8-1.8,1.2-1.1.7-2.3,1.4-3.4,2-1.1.6-2,1.1-2.7,1.5-.3.2-.6.3-.7.4-1.6,0-3.3,0-4.6,0-.2,0-.3,0-.5,0,.2-.1.5-.3.7-.4h0c.8-.5,1.8-1.1,2.7-1.6,1.5-.9,3.1-1.9,4.7-2.8,1-.6,2-1.2,2.9-1.8l.3-.5-.4-1.5c-.5.3-1,.7-1.5,1-2.2,1.4-4.7,2.9-6.8,4.2-.2.1-.3.2-.5.3h0c-1.2.7-2,1.2-2.7,1.6h0c-.5.3-.9.6-1.2.8-.4.3-.6.4-.7.6h0s0,0,0,0c0,0,0,0,0,0,0,0-.1.2-.1.2-.1.3-.1.7,0,.9,0,.1.2.3.7.5,0,0,.1,0,.2,0,.2,0,.5.1.8.2,0,0,.1,0,.2,0,.3,0,.6,0,.9,0,1.1,0,2.6.1,4.7,0,.2,0,.4,0,.5,0h.2s.2,0,.2,0c0,0,.6-.3,1.4-.7,2.8-1.5,8.7-4.8,10.8-7.1.5-.6,1.2-1.6,1.8-2.7,0,0,0,0,0-.1,0-.9-.2-1.9-.3-3-1,2-2,3.7-2.8,4.7M439.5,234.2h0s0,0-.1,0c0,0,0,0,0,0,0,0,0,0,0,0-.2,0-.3,0-.5-.2,0,0,0,0-.1,0,0,0,0,0,0-.1l-.6-.8c-.4.2-.8.4-1.3.7-.9.5-1.8,1-2.7,1.5-.5.3-1,.6-1.5.9-2,1.1-3.5,2-3.9,2.3,0,0,0,0,0,0-.4.3-1,.5-1.6.7h0c-2,.7-5.1.9-9.1.6l.3,1.8c4.2.2,7.3,0,9.5-.8.6-.2,1.1-.4,1.6-.7,0,0,.2,0,.2-.1.7-.5,2-1.2,3.6-2.1.5-.3,1-.6,1.5-.8,1-.6,2.1-1.2,3.2-1.7.5-.3,1.1-.6,1.6-.8,0,0,0,0,.1,0,0,0-.1,0-.2,0ZM449.8,238.6h0c-.6.7-1.6,1.5-2.8,2.3-.6.4-1.2.8-1.8,1.2-1.1.7-2.3,1.4-3.4,2-1.1.6-2,1.1-2.7,1.5-.3.2-.6.3-.7.4-1.6,0-3.3,0-4.6,0-.2,0-.3,0-.5,0,.2-.1.5-.3.7-.4h0c.8-.5,1.8-1.1,2.7-1.6,1.5-.9,3.1-1.9,4.7-2.8,1-.6,2-1.2,2.9-1.8l.3-.5-.4-1.5c-.5.3-1,.7-1.5,1-2.2,1.4-4.7,2.9-6.8,4.2-.2.1-.3.2-.5.3h0c-1.2.7-2,1.2-2.7,1.6h0c-.5.3-.9.6-1.2.8-.4.3-.6.4-.7.6h0s0,0,0,0c0,0,0,0,0,0,0,0-.1.2-.1.2-.1.3-.1.7,0,.9,0,.1.2.3.7.5,0,0,.1,0,.2,0,.2,0,.5.1.8.2,0,0,.1,0,.2,0,.3,0,.6,0,.9,0,1.1,0,2.6.1,4.7,0,.2,0,.4,0,.5,0h.2s.2,0,.2,0c0,0,.6-.3,1.4-.7,2.8-1.5,8.7-4.8,10.8-7.1.5-.6,1.2-1.6,1.8-2.7,0,0,0,0,0-.1,0-.9-.2-1.9-.3-3-1,2-2,3.7-2.8,4.7ZM439.5,234.2h0s0,0-.1,0c0,0,0,0,0,0,0,0,0,0,0,0-.2,0-.3,0-.5-.2,0,0,0,0-.1,0,0,0,0,0,0-.1l-.6-.8c-.4.2-.8.4-1.3.7-.9.5-1.8,1-2.7,1.5-.5.3-1,.6-1.5.9-2,1.1-3.5,2-3.9,2.3,0,0,0,0,0,0-.4.3-1,.5-1.6.7h0c-2,.7-5.1.9-9.1.6l.3,1.8c4.2.2,7.3,0,9.5-.8.6-.2,1.1-.4,1.6-.7,0,0,.2,0,.2-.1.7-.5,2-1.2,3.6-2.1.5-.3,1-.6,1.5-.8,1-.6,2.1-1.2,3.2-1.7.5-.3,1.1-.6,1.6-.8,0,0,0,0,.1,0,0,0-.1,0-.2,0ZM449.8,238.6h0c-.6.7-1.6,1.5-2.8,2.3-.6.4-1.2.8-1.8,1.2-1.1.7-2.3,1.4-3.4,2-1.1.6-2,1.1-2.7,1.5-.3.2-.6.3-.7.4-1.6,0-3.3,0-4.6,0-.2,0-.3,0-.5,0,.2-.1.5-.3.7-.4h0c.8-.5,1.8-1.1,2.7-1.6,1.5-.9,3.1-1.9,4.7-2.8,1-.6,2-1.2,2.9-1.8l.3-.5-.4-1.5c-.5.3-1,.7-1.5,1-2.2,1.4-4.7,2.9-6.8,4.2-.2.1-.3.2-.5.3h0c-1.2.7-2,1.2-2.7,1.6h0c-.5.3-.9.6-1.2.8-.4.3-.6.4-.7.6h0s0,0,0,0c0,0,0,0,0,0,0,0-.1.2-.1.2-.1.3-.1.7,0,.9,0,.1.2.3.7.5,0,0,.1,0,.2,0,.2,0,.5.1.8.2,0,0,.1,0,.2,0,.3,0,.6,0,.9,0,1.1,0,2.6.1,4.7,0,.2,0,.4,0,.5,0h.2s.2,0,.2,0c0,0,.6-.3,1.4-.7,2.8-1.5,8.7-4.8,10.8-7.1.5-.6,1.2-1.6,1.8-2.7,0,0,0,0,0-.1,0-.9-.2-1.9-.3-3-1,2-2,3.7-2.8,4.7ZM439.5,234.2h0s0,0-.1,0c0,0,0,0,0,0,0,0,0,0,0,0-.2,0-.3,0-.5-.2,0,0,0,0-.1,0,0,0,0,0,0-.1l-.6-.8c-.4.2-.8.4-1.3.7-.9.5-1.8,1-2.7,1.5-.5.3-1,.6-1.5.9-2,1.1-3.5,2-3.9,2.3,0,0,0,0,0,0-.4.3-1,.5-1.6.7h0c-2,.7-5.1.9-9.1.6l.3,1.8c4.2.2,7.3,0,9.5-.8.6-.2,1.1-.4,1.6-.7,0,0,.2,0,.2-.1.7-.5,2-1.2,3.6-2.1.5-.3,1-.6,1.5-.8,1-.6,2.1-1.2,3.2-1.7.5-.3,1.1-.6,1.6-.8,0,0,0,0,.1,0,0,0-.1,0-.2,0ZM449.8,238.6h0c-.6.7-1.6,1.5-2.8,2.3-.6.4-1.2.8-1.8,1.2-1.1.7-2.3,1.4-3.4,2-1.1.6-2,1.1-2.7,1.5-.3.2-.6.3-.7.4-1.6,0-3.3,0-4.6,0-.2,0-.3,0-.5,0,.2-.1.5-.3.7-.4h0c.8-.5,1.8-1.1,2.7-1.6,1.5-.9,3.1-1.9,4.7-2.8,1-.6,2-1.2,2.9-1.8.4-.3.8-.5,1.1-.8.7-.5,1.3-.9,1.8-1.3l.2-2.4s0,0-.2.1c-.5.4-1,.9-1.7,1.3-.5.3-.9.7-1.5,1-.5.3-1,.7-1.5,1-2.2,1.4-4.7,2.9-6.8,4.2-.2.1-.3.2-.5.3h0c-1.2.7-2,1.2-2.7,1.6h0c-.5.3-.9.6-1.2.8-.4.3-.6.4-.7.6h0s0,0,0,0c0,0,0,0,0,0,0,0-.1.2-.1.2-.1.3-.1.7,0,.9,0,.1.2.3.7.5,0,0,.1,0,.2,0,.2,0,.5.1.8.2,0,0,.1,0,.2,0,.3,0,.6,0,.9,0,1.1,0,2.6.1,4.7,0,.2,0,.4,0,.5,0h.2s.2,0,.2,0c0,0,.6-.3,1.4-.7,2.8-1.5,8.7-4.8,10.8-7.1.5-.6,1.2-1.6,1.8-2.7,0,0,0,0,0-.1,0-.9-.2-1.9-.3-3-1,2-2,3.7-2.8,4.7ZM465.4,220.2h0c-5.1-1.3-8.7,4.7-8.8,4.9h0c0,.2-1.1,2.9-2.5,5.9-.5,1-.9,2-1.4,3-1,2-2,3.7-2.8,4.7-.6.7-1.6,1.5-2.8,2.3-.6.4-1.2.8-1.8,1.2-1.1.7-2.3,1.4-3.4,2-1.1.6-2,1.1-2.7,1.5-.3.2-.6.3-.7.4-1.6,0-3.3,0-4.6,0-.2,0-.3,0-.5,0,.2-.1.5-.3.7-.4h0c.8-.5,1.8-1.1,2.7-1.6,1.5-.9,3.1-1.9,4.7-2.8,1-.6,2-1.2,2.9-1.8.4-.3.8-.5,1.1-.8.7-.5,1.3-.9,1.8-1.3.4-.3.8-.7,1.2-1,2.7-2.3,2.8-4,2.4-5-.4-1.1-1.5-1.8-3-2,0,0-.2,0-.3,0,0,0,0,0-.1,0-.2,0-.5,0-.8.1-.2,0-.3,0-.5.1-1,.3-2.3.8-3.8,1.5-.5.2-1.1.5-1.6.8-.4.2-.8.4-1.2.6-.4.2-.8.4-1.2.6-.1,0-.2.1-.3.2-.4.2-.8.4-1.3.7-.9.5-1.8,1-2.7,1.5-.5.3-1,.6-1.5.9-2,1.1-3.5,2-3.9,2.3,0,0,0,0,0,0-.4.3-1,.5-1.6.7h0c-2,.7-5.1.9-9.1.6-.6,0-1.2,0-1.8-.1-.3,0-.5,0-.8,0-2.7-.3-5.3,0-7.5.8-.6.2-1.2.4-1.8.7-3.7,1.6-6.6,4.3-8.2,6.9-2.2,3.7-10.7,8.8-12.6,9.9l1,1.4c2.2-1.3,10.8-6.4,13.2-10.4,1.3-2.2,3.6-4.4,6.5-5.8.6-.3,1.2-.6,1.8-.8,2.2-.8,4.8-1.2,7.5-1,.4,0,.9,0,1.3.1.6,0,1.2,0,1.8.1,4.2.2,7.3,0,9.5-.8.6-.2,1.1-.4,1.6-.7,0,0,.2,0,.2-.1.7-.5,2-1.2,3.6-2.1.5-.3,1-.6,1.5-.8,1-.6,2.1-1.2,3.2-1.7.5-.3,1.1-.6,1.6-.8,0,0,0,0,.1,0,.5-.3,1-.5,1.5-.8.5-.3,1.1-.5,1.6-.8,1.2-.6,2.3-1.1,3.2-1.4.7-.2,1.2-.4,1.4-.4.1,0,.2,0,.3,0,.8,0,1.3.4,1.5.8,0,.3.2,1.2-1.8,3,0,0,0,0-.2.1-.5.4-1,.9-1.7,1.3-.5.3-.9.7-1.5,1-.5.3-1,.7-1.5,1-2.2,1.4-4.7,2.9-6.8,4.2-.2.1-.3.2-.5.3h0c-1.2.7-2,1.2-2.7,1.6h0c-.5.3-.9.6-1.2.8-.4.3-.6.4-.7.6h0s0,0,0,0c0,0,0,0,0,0,0,0-.1.2-.1.2-.1.3-.1.7,0,.9,0,.1.2.3.7.5,0,0,.1,0,.2,0,.2,0,.5.1.8.2,0,0,.1,0,.2,0,.3,0,.6,0,.9,0,1.1,0,2.6.1,4.7,0,.2,0,.4,0,.5,0h.2s.2,0,.2,0c0,0,.6-.3,1.4-.7,2.8-1.5,8.7-4.8,10.8-7.1.5-.6,1.2-1.6,1.8-2.7.5-.8,1-1.8,1.4-2.8,1.8-3.7,3.5-7.7,3.7-8.4.3-.5,2.7-4.2,5.8-4.2l-8.5,20.7h0c0,.1,0,.2,0,.2,0,0-.5,3.1-5.2,6.1-3.6,2.3-9.1,6.1-12.2,8.3-.6.4-1,.7-1.4,1-.3.2-.5.3-.6.4-2.2.1-17.9,1.3-30,4.8-.6.2-1.2.4-1.8.6-.2,0-.5.2-.7.2h-.2c0,0-7.6,9.1-7.6,9.1l1.4,1.1,7.3-8.7c12.9-4.3,31.9-5.4,32.1-5.5h.2s.2-.2.2-.2c0,0,9.2-6.5,14.4-9.8,5-3.2,5.8-6.5,6-7.2l9.3-22.6-1-.3ZM437.9,235h0c.5-.3,1.1-.6,1.6-.8,0,0,0,0,.1,0,0,0-.1,0-.2,0,0,0,0,0-.1,0,0,0,0,0,0,0,0,0,0,0,0,0-.2,0-.3,0-.5-.2,0,0,0,0-.1,0,0,0,0,0,0-.1l-.6-.8c-.4.2-.8.4-1.3.7-.9.5-1.8,1-2.7,1.5.2.6.5,1.1.7,1.6,1-.6,2.1-1.2,3.2-1.7ZM449.8,238.6h0c-.6.7-1.6,1.5-2.8,2.3-.6.4-1.2.8-1.8,1.2-1.1.7-2.3,1.4-3.4,2-1.1.6-2,1.1-2.7,1.5-.3.2-.6.3-.7.4-1.6,0-3.3,0-4.6,0-.2,0-.3,0-.5,0,.2-.1.5-.3.7-.4h0c.8-.5,1.8-1.1,2.7-1.6,1.5-.9,3.1-1.9,4.7-2.8,1-.6,2-1.2,2.9-1.8.4-.3.8-.5,1.1-.8.7-.5,1.3-.9,1.8-1.3.4-.3.8-.7,1.2-1,2.7-2.3,2.8-4,2.4-5-.4-1.1-1.5-1.8-3-2,0,0-.2,0-.3,0,0,0,0,0,0,0-.3.2-.7.3-1,0-.2,0-.3,0-.5.1-1,.3-2.3.8-3.8,1.5l.5,1.7c1.2-.6,2.3-1.1,3.2-1.4.7-.2,1.2-.4,1.4-.4.1,0,.2,0,.3,0,.8,0,1.3.4,1.5.8,0,.3.2,1.2-1.8,3,0,0,0,0-.2.1-.5.4-1,.9-1.7,1.3-.5.3-.9.7-1.5,1-.5.3-1,.7-1.5,1-2.2,1.4-4.7,2.9-6.8,4.2-.2.1-.3.2-.5.3h0c-1.2.7-2,1.2-2.7,1.6h0c-.5.3-.9.6-1.2.8-.4.3-.6.4-.7.6h0s0,0,0,0c0,0,0,0,0,0,0,0-.1.2-.1.2-.1.3-.1.7,0,.9,0,.1.2.3.7.5,0,0,.1,0,.2,0,.2,0,.5.1.8.2,0,0,.1,0,.2,0,.3,0,.6,0,.9,0,1.1,0,2.6.1,4.7,0,.2,0,.4,0,.5,0h.2s.2,0,.2,0c0,0,.6-.3,1.4-.7,2.8-1.5,8.7-4.8,10.8-7.1.5-.6,1.2-1.6,1.8-2.7,0,0,0,0,0-.1,0-.9-.2-1.9-.3-3-1,2-2,3.7-2.8,4.7ZM435.8,242.4h0c-.2.1-.3.2-.5.3h0c-1.2.7-2,1.2-2.7,1.6h0c-.5.3-.9.6-1.2.8-.4.3-.6.4-.7.6h0s0,0,0,0c0,0,0,0,0,0,0,0-.1.2-.1.2-.1.3-.1.7,0,.9,0,.1.2.3.7.5,0,0,.1,0,.2,0,.2,0,.5.1.8.2,0,0,.1,0,.2,0,.3,0,.6,0,.9,0,1.1,0,2.6.1,4.7,0,0,0,0-.2,0-.3l.9-1.8c-.3.2-.6.3-.7.4-1.6,0-3.3,0-4.6,0-.2,0-.3,0-.5,0,.2-.1.5-.3.7-.4h0c.8-.5,1.8-1.1,2.7-1.6,1.5-.9,3.1-1.9,4.7-2.8l1.3-2.5v-.3c-2.3,1.4-4.8,2.9-6.9,4.2ZM439.5,234.2h0s0,0-.1,0c0,0,0,0,0,0,0,0,0,0,0,0-.2,0-.3,0-.5-.2,0,0,0,0-.1,0,0,0,0,0,0-.1l-.6-.8c-.4.2-.8.4-1.3.7-.9.5-1.8,1-2.7,1.5-.5.3-1,.6-1.5.9-2,1.1-3.5,2-3.9,2.3,0,0,0,0,0,0-.4.3-1,.5-1.6.7h0c-2,.7-5.1.9-9.1.6l.3,1.8c4.2.2,7.3,0,9.5-.8.6-.2,1.1-.4,1.6-.7,0,0,.2,0,.2-.1.7-.5,2-1.2,3.6-2.1.5-.3,1-.6,1.5-.8,1-.6,2.1-1.2,3.2-1.7.5-.3,1.1-.6,1.6-.8,0,0,0,0,.1,0,0,0-.1,0-.2,0ZM449.8,238.6h0c-.6.7-1.6,1.5-2.8,2.3-.6.4-1.2.8-1.8,1.2-1.1.7-2.3,1.4-3.4,2-1.1.6-2,1.1-2.7,1.5-.3.2-.6.3-.7.4-1.6,0-3.3,0-4.6,0-.2,0-.3,0-.5,0,.2-.1.5-.3.7-.4h0c.8-.5,1.8-1.1,2.7-1.6,1.5-.9,3.1-1.9,4.7-2.8,1-.6,2-1.2,2.9-1.8l.3-.5-.4-1.5c-.5.3-1,.7-1.5,1-2.2,1.4-4.7,2.9-6.8,4.2-.2.1-.3.2-.5.3h0c-1.2.7-2,1.2-2.7,1.6h0c-.5.3-.9.6-1.2.8-.4.3-.6.4-.7.6h0s0,0,0,0c0,0,0,0,0,0,0,0-.1.2-.1.2-.1.3-.1.7,0,.9,0,.1.2.3.7.5,0,0,.1,0,.2,0,.2,0,.5.1.8.2,0,0,.1,0,.2,0,.3,0,.6,0,.9,0,1.1,0,2.6.1,4.7,0,.2,0,.4,0,.5,0h.2s.2,0,.2,0c0,0,.6-.3,1.4-.7,2.8-1.5,8.7-4.8,10.8-7.1.5-.6,1.2-1.6,1.8-2.7,0,0,0,0,0-.1,0-.9-.2-1.9-.3-3-1,2-2,3.7-2.8,4.7ZM439.5,234.2h0s0,0-.1,0c0,0,0,0,0,0,0,0,0,0,0,0-.2,0-.3,0-.5-.2,0,0,0,0-.1,0,0,0,0,0,0-.1l-.6-.8c-.4.2-.8.4-1.3.7-.9.5-1.8,1-2.7,1.5-.5.3-1,.6-1.5.9-2,1.1-3.5,2-3.9,2.3,0,0,0,0,0,0-.4.3-1,.5-1.6.7h0c-2,.7-5.1.9-9.1.6l.3,1.8c4.2.2,7.3,0,9.5-.8.6-.2,1.1-.4,1.6-.7,0,0,.2,0,.2-.1.7-.5,2-1.2,3.6-2.1.5-.3,1-.6,1.5-.8,1-.6,2.1-1.2,3.2-1.7.5-.3,1.1-.6,1.6-.8,0,0,0,0,.1,0,0,0-.1,0-.2,0ZM449.8,238.6h0c-.6.7-1.6,1.5-2.8,2.3-.6.4-1.2.8-1.8,1.2-1.1.7-2.3,1.4-3.4,2-1.1.6-2,1.1-2.7,1.5-.3.2-.6.3-.7.4-1.6,0-3.3,0-4.6,0-.2,0-.3,0-.5,0,.2-.1.5-.3.7-.4h0c.8-.5,1.8-1.1,2.7-1.6,1.5-.9,3.1-1.9,4.7-2.8,1-.6,2-1.2,2.9-1.8l.3-.5-.4-1.5c-.5.3-1,.7-1.5,1-2.2,1.4-4.7,2.9-6.8,4.2-.2.1-.3.2-.5.3h0c-1.2.7-2,1.2-2.7,1.6h0c-.5.3-.9.6-1.2.8-.4.3-.6.4-.7.6h0s0,0,0,0c0,0,0,0,0,0,0,0-.1.2-.1.2-.1.3-.1.7,0,.9,0,.1.2.3.7.5,0,0,.1,0,.2,0,.2,0,.5.1.8.2,0,0,.1,0,.2,0,.3,0,.6,0,.9,0,1.1,0,2.6.1,4.7,0,.2,0,.4,0,.5,0h.2s.2,0,.2,0c0,0,.6-.3,1.4-.7,2.8-1.5,8.7-4.8,10.8-7.1.5-.6,1.2-1.6,1.8-2.7,0,0,0,0,0-.1,0-.9-.2-1.9-.3-3-1,2-2,3.7-2.8,4.7ZM439.5,234.2h0s0,0-.1,0c0,0,0,0,0,0,0,0,0,0,0,0-.2,0-.3,0-.5-.2,0,0,0,0-.1,0,0,0,0,0,0-.1l-.6-.8c-.4.2-.8.4-1.3.7-.9.5-1.8,1-2.7,1.5-.5.3-1,.6-1.5.9-2,1.1-3.5,2-3.9,2.3,0,0,0,0,0,0-.4.3-1,.5-1.6.7h0c-2,.7-5.1.9-9.1.6l.3,1.8c4.2.2,7.3,0,9.5-.8.6-.2,1.1-.4,1.6-.7,0,0,.2,0,.2-.1.7-.5,2-1.2,3.6-2.1.5-.3,1-.6,1.5-.8,1-.6,2.1-1.2,3.2-1.7.5-.3,1.1-.6,1.6-.8,0,0,0,0,.1,0,0,0-.1,0-.2,0ZM449.8,238.6c-.6.7-1.6,1.5-2.8,2.3-.6.4-1.2.8-1.8,1.2-1.1.7-2.3,1.4-3.4,2-1.1.6-2,1.1-2.7,1.5-.3.2-.6.3-.7.4-1.6,0-3.3,0-4.6,0-.2,0-.3,0-.5,0,.2-.1.5-.3.7-.4h0c.8-.5,1.8-1.1,2.7-1.6,1.5-.9,3.1-1.9,4.7-2.8,1-.6,2-1.2,2.9-1.8.4-.3.8-.5,1.1-.8l.2-2.2c-.5.3-.9.7-1.5,1-.5.3-1,.7-1.5,1-2.2,1.4-4.7,2.9-6.8,4.2-.2.1-.3.2-.5.3h0c-1.2.7-2,1.2-2.7,1.6h0c-.5.3-.9.6-1.2.8-.4.3-.6.4-.7.6h0s0,0,0,0c0,0,0,0,0,0,0,0-.1.2-.1.2-.1.3-.1.7,0,.9,0,.1.2.3.7.5,0,0,.1,0,.2,0,.2,0,.5.1.8.2,0,0,.1,0,.2,0,.3,0,.6,0,.9,0,1.1,0,2.6.1,4.7,0,.2,0,.4,0,.5,0h.2s.2,0,.2,0c0,0,.6-.3,1.4-.7,2.8-1.5,8.7-4.8,10.8-7.1.5-.6,1.2-1.6,1.8-2.7,0,0,0,0,0-.1,0-.9-.2-1.9-.3-3-1,2-2,3.7-2.8,4.7Z"/>
        <path class="cls-3" d="M447.4,234.7l-.2,2.4-.3,3.9v1.8c-.2.4-.4.6-.7.8-.1,0-.2,0-.4,0-.5,0-.8-.5-.8-.9v-.4s.3-3.7.3-3.7l.2-2.2c.7-.5,1.2-.9,1.7-1.3,0,0,.1,0,.2-.1"/>
        <path class="cls-3" d="M453,222.6c.1.8.6,4.8,1,8.4.1,1.2.3,2.3.4,3.3-.5,1-1,1.9-1.4,2.8,0,0,0,0,0-.1,0-.9-.2-1.9-.3-3-.5-4.5-1.1-10.2-1.3-11.1-.1-.7-2.3-4.5-4.7-8.5-.4-.7-.9-1.5-1.3-2.2,0,0,0-.1,0-.2,0,0,0,0,0,0,0,0,0,0,0,0-.3.4-.5,1-.5,1.6-.1.9,0,1.8,0,2.3,1.1,3,3.1,11.3,3.3,12.2,0,0,0,0,0,0,0,0,0,0,0,0h0c0,0,0,.1,0,.1,0,0,0,0,0,.1,0,0,0,0,0,0v.6s-.2,1.7-.2,1.7c-.1,0-.2,0-.3,0-.3,0-.8.1-1.4.4v-1.9c.1,0,.2-.6.2-.6v-.2c0-.4-.4-1.9-.9-3.6-.7-2.9-1.7-6.7-2.4-8.4v-.2c0-.2-.2-1.7,0-3.1,0-.6.3-1.2.5-1.7.1-.2.2-.4.3-.5.5-.6,1.1-.9,1.8-1h.5s.3.4.3.4c.3.6.8,1.4,1.4,2.4h0c.4.7.8,1.4,1.3,2.2h0c1.8,3.1,3.8,6.6,3.9,7.5"/>
        <path class="cls-3" d="M440.1,229.1h0s0,0,0,0M447.7,227.9h0l-2.5-3-8.1-10-.6.4c-.1,0-1.3.8-1.8,2.5-.5,1.9.2,4.3,1.9,7,1.2,1.9,2.1,3.3,2.7,4.1.2.3.5.7.8.9l.5,1.9.5,1.7c.5-.3,1.1-.5,1.6-.8l-.5-1.7-.6-2.2h0s0,0,0,0c-.2-.2-1.3-1.2-3.5-4.8-1.8-2.8-1.9-4.6-1.7-5.6,0-.4.3-.7.4-1l9.3,11.5.2.3c0,0,.2.2.3.2.3.2.7.1,1,0,0,0,0,0,0,0,.2-.2.3-.4.3-.6,0,0,0,0,0,0,0,0,0,0,0-.1,0,0,0,0,0-.1,0,0,0,0,0,0,0,0,0,0,0,0,0,0,0-.2-.2-.3ZM442.6,238.2v.3c0,0-1.2,2.5-1.2,2.5l-2.4,4.6-.9,1.8c0,0,0,.2,0,.3.2,0,.3,0,.5,0h.2s.2,0,.2,0c0,0,.6-.3,1.4-.7l1.4-2.7,2.5-5,.3-.5-.4-1.5c-.5.3-1,.7-1.5,1Z"/>
        <path class="cls-3" d="M432.6,244.3c.7-.4,1.5-.9,2.7-1.6l-1.3,2.8h0s-.2.5-.2.5l-.5,1.1c0,0,0,.1-.1.2,0,.1-.2.2-.4.3-.1,0-.2,0-.3,0,0,0-.1,0-.2,0,0,0,0,0-.1,0-.2,0-.3-.2-.4-.4-.1-.2-.1-.5,0-.8l.3-.6.2-.4.5-1.1h0Z"/>
        <path class="cls-3" d="M439.8,234.1s0,0,0,0c0,0-.1,0-.2,0,0,0,0,0-.1,0,0,0,0,0,0,0,0,0,0,0,0,0-.2,0-.3,0-.5-.2,0,0,0,0-.1,0,0,0,0,0,0-.1l-.6-.8-1.6-2.3h0s-4.3-6.2-4.3-6.2c-.2.2-.4.5-.6.8-.3.5-.5,1.2-.5,2,0,.8.2,1.8.8,2.9.9,1.7,1.7,3.4,2.3,4.9.2.6.5,1.1.7,1.6-.5.3-1,.6-1.5.8-.2-.5-.4-1-.7-1.6-.7-1.5-1.5-3.3-2.4-5-1.1-2.2-1.1-4-.7-5.3.2-.7.5-1.2.8-1.7.7-1,1.5-1.5,1.5-1.5l.7-.4,7,10.1.4.6c.3.4.2.9-.2,1.2"/>
        <path class="cls-3" d="M431.8,247c0,0-.1.1-.2.2,0,0-.2.2-.3.3,0,0,0,0,0,0-1.7,1.6-4.8,4.9-5.6,6.8-.1.2-.3.4-.5.5-.2,0-.4,0-.6,0-.4-.2-.6-.7-.5-1.1,1.2-2.8,6-7.4,6.5-7.9,0,0,0,0,0,0,0,0,0,0,0,0,0,0,0,0,0,0,.3-.3.9-.3,1.2,0,0,0,0,0,0,0,.3.3.3.9,0,1.2"/>
        <path class="cls-3" d="M310.1,153.5c-.9,1,.2,2.5,1.5,2,.2,0,.3-.2.4-.3,1-1.1,2-2.2,3-3.3.2-.2.3-.4.3-.7.1-1.2-1.3-1.9-2.1-1-1.1,1.1-2.1,2.2-3.1,3.4M300.7,166.6c-.7,1.2.7,2.4,1.8,1.7.2-.1.2-.2.3-.4.8-1.3,1.6-2.5,2.4-3.8.8-1.1-.6-2.5-1.8-1.7-.1,0-.2.2-.3.3-.8,1.3-1.7,2.6-2.4,3.9ZM293.8,181.2c-.4,1.2,1,2.3,2,1.3.1-.1.2-.3.3-.5.5-1.4,1.1-2.8,1.7-4.2.5-1.3-1.1-2.4-2.1-1.4-.1.1-.2.2-.2.4-.6,1.4-1.2,2.8-1.7,4.3ZM289.6,196.7c-.2,1.3,1.6,2.1,2.3.8,0-.1.1-.3.2-.4.2-1.5.6-2.9.9-4.4.1-.6-.2-1.2-.8-1.5-.7-.3-1.5.2-1.6.9-.3,1.5-.7,3-.9,4.5ZM288.3,210.7c0,1.1,1.3,1.7,2.2.9.2-.2.3-.5.3-.8,0-.8,0-1.6,0-2.5,0-1.4-1.9-1.8-2.4-.5,0,.1,0,.2,0,.4,0,.8,0,1.7,0,2.5ZM325.2,142.8c.2-.2.4-.4.4-.6.3-1.2-1-2.1-2-1.4-.7.5-1.3,1-2,1.6-1.1.9,0,2.7,1.3,2.1,0,0,.1,0,.2-.1.6-.5,1.3-1,1.9-1.5Z"/>
        <path class="cls-3" d="M465.2,191.6c-.4-1.5-2.5-1.2-2.5.3,0,0,0,.1,0,.2.4,1.5.7,3.1,1,4.6.3,1.4,2.4,1.4,2.5-.2,0,0,0-.2,0-.3-.3-1.6-.6-3.2-1-4.7M459.8,175.5c-.2-.4-.6-.7-1.1-.7-.9,0-1.6.9-1.2,1.8.6,1.4,1.2,2.9,1.8,4.3.4,1.1,2.1,1.1,2.4-.2,0-.2,0-.4,0-.7-.6-1.5-1.2-3-1.9-4.5ZM451.4,160.8c-.8-1.1-2.6-.3-2.2,1.1,0,.1,0,.3.2.4.9,1.3,1.8,2.6,2.6,3.9.7,1.2,2.5.5,2.3-.9,0-.2,0-.3-.2-.4-.9-1.4-1.7-2.7-2.7-4ZM443.8,151.4l-1.8,1.7,1.8-1.7ZM440.4,147.9c-.2-.2-.4-.3-.7-.3-1.2-.1-1.9,1.3-1,2.1,1.1,1,2.3,2.3,3.3,3.4.9,1,2.6,0,2.1-1.3,0-.1-.1-.2-.2-.4-1.1-1.2-2.2-2.4-3.4-3.5ZM427.2,137.3c-.9-.6-2.1.2-1.9,1.3,0,.3.2.6.5.8,1.3.9,2.6,1.8,3.9,2.7,1.1.8,2.6-.5,1.8-1.7,0-.1-.2-.2-.3-.3-1.3-1-2.6-1.9-4-2.8ZM412.3,129.4c-1.2-.5-2.3,1-1.4,2,.1.1.3.2.4.3,1.4.6,2.9,1.2,4.3,1.9,1.3.6,2.4-1.1,1.4-2.1,0,0-.2-.1-.3-.2-1.5-.7-2.9-1.4-4.4-2ZM396.1,124.4c-1.3-.3-2.1,1.5-.9,2.3.1,0,.2.1.4.1,1.5.3,3.1.7,4.6,1.1,1.3.3,2.1-1.2,1.2-2.1-.2-.1-.3-.3-.5-.3-1.6-.4-3.1-.8-4.7-1.1ZM379.3,122.5c-.3,0-.6,0-.8.3-.9.8-.4,2.2.8,2.2,1.6,0,3.1,0,4.7.2,1.3,0,1.9-1.7.7-2.4-.2,0-.3-.1-.5-.1-1.6-.1-3.2-.2-4.8-.2ZM362.4,123.9c-1.3.2-1.4,2-.1,2.4.2,0,.4,0,.6,0,1.5-.3,3.1-.5,4.7-.7,1.3-.1,1.5-2,.2-2.4-.2,0-.3,0-.5,0-1.6.2-3.2.4-4.8.7ZM348.3,127.6c-1.4.5-.9,2.5.5,2.4.1,0,.2,0,.3,0,.8-.3,1.6-.5,2.3-.8.6-.2.9-.7.9-1.3,0-.8-.9-1.4-1.6-1.1-.8.3-1.6.5-2.4.8ZM465.1,210.9c0,.7.6,1.2,1.3,1.2.7,0,1.2-.6,1.2-1.3,0-.8,0-1.7,0-2.5,0-1.4-2-1.7-2.4-.3,0,.1,0,.3,0,.4,0,.8,0,1.6,0,2.5Z"/>
        <path class="cls-3" d="M318.6,177.6c-.5-.3-.7-.9-.4-1.4.3-.5.9-.7,1.4-.4l13.2,7.6c.5.3.7.9.4,1.4-.3.5-.9.7-1.4.4l-13.2-7.6ZM343.1,152.4c-.3-.5-.1-1.1.4-1.4.5-.3,1.1-.1,1.4.4l7.6,13.2c.3.5.1,1.1-.4,1.4-.5.3-1.1.1-1.4-.4l-7.6-13.2ZM376.9,142.7c0-.6.5-1,1-1s1,.5,1,1v15.3c0,.6-.5,1-1,1s-1-.5-1-1v-15.3ZM411,151.3c.3-.5.9-.7,1.4-.4.5.3.7.9.4,1.4l-7.6,13.2c-.3.5-.9.7-1.4.4-.5-.3-.7-.9-.4-1.4l7.6-13.2ZM436.3,175.8c.5-.3,1.1-.1,1.4.4.3.5.1,1.1-.4,1.4l-13.2,7.6c-.5.3-1.1.1-1.4-.4-.3-.5-.1-1.1.4-1.4l13.2-7.6Z"/>
        <path class="cls-3" d="M306.1,238.6h0c.6.7,1.6,1.5,2.8,2.3.6.4,1.2.8,1.8,1.2,1.1.7,2.3,1.4,3.4,2,1.1.6,2,1.1,2.7,1.5.3.2.6.3.7.4,1.6,0,3.3,0,4.6,0,.2,0,.3,0,.5,0-.2-.1-.5-.3-.7-.4h0c-.8-.5-1.8-1.1-2.7-1.6-1.5-.9-3.1-1.9-4.7-2.8-1-.6-2-1.2-2.9-1.8l-.3-.5.4-1.5c.5.3,1,.7,1.5,1,2.2,1.4,4.7,2.9,6.8,4.2.2.1.3.2.5.3h0c1.2.7,2,1.2,2.7,1.6h0c.5.3.9.6,1.2.8.4.3.6.4.7.6h0s0,0,0,0c0,0,0,0,0,0,0,0,.1.2.1.2.1.3.1.7,0,.9,0,.1-.2.3-.7.5,0,0-.1,0-.2,0-.2,0-.5.1-.8.2,0,0-.1,0-.2,0-.3,0-.6,0-.9,0-1.1,0-2.6.1-4.7,0-.2,0-.4,0-.5,0h-.2s-.2,0-.2,0c0,0-.6-.3-1.4-.7-2.8-1.5-8.7-4.8-10.8-7.1-.5-.6-1.2-1.6-1.8-2.7,0,0,0,0,0-.1,0-.9.2-1.9.3-3,1,2,2,3.7,2.8,4.7M316.3,234.2h0s0,0,.1,0c0,0,0,0,0,0,0,0,0,0,0,0,.2,0,.3,0,.5-.2,0,0,0,0,.1,0,0,0,0,0,0-.1l.6-.8c.4.2.8.4,1.3.7.9.5,1.8,1,2.7,1.5.5.3,1,.6,1.5.9,2,1.1,3.5,2,3.9,2.3,0,0,0,0,0,0,.4.3,1,.5,1.6.7h0c2,.7,5.1.9,9.1.6l-.3,1.8c-4.2.2-7.3,0-9.5-.8-.6-.2-1.1-.4-1.6-.7,0,0-.2,0-.2-.1-.7-.5-2-1.2-3.6-2.1-.5-.3-1-.6-1.5-.8-1-.6-2.1-1.2-3.2-1.7-.5-.3-1.1-.6-1.6-.8,0,0,0,0-.1,0,0,0,.1,0,.2,0ZM306.1,238.6h0c.6.7,1.6,1.5,2.8,2.3.6.4,1.2.8,1.8,1.2,1.1.7,2.3,1.4,3.4,2,1.1.6,2,1.1,2.7,1.5.3.2.6.3.7.4,1.6,0,3.3,0,4.6,0,.2,0,.3,0,.5,0-.2-.1-.5-.3-.7-.4h0c-.8-.5-1.8-1.1-2.7-1.6-1.5-.9-3.1-1.9-4.7-2.8-1-.6-2-1.2-2.9-1.8l-.3-.5.4-1.5c.5.3,1,.7,1.5,1,2.2,1.4,4.7,2.9,6.8,4.2.2.1.3.2.5.3h0c1.2.7,2,1.2,2.7,1.6h0c.5.3.9.6,1.2.8.4.3.6.4.7.6h0s0,0,0,0c0,0,0,0,0,0,0,0,.1.2.1.2.1.3.1.7,0,.9,0,.1-.2.3-.7.5,0,0-.1,0-.2,0-.2,0-.5.1-.8.2,0,0-.1,0-.2,0-.3,0-.6,0-.9,0-1.1,0-2.6.1-4.7,0-.2,0-.4,0-.5,0h-.2s-.2,0-.2,0c0,0-.6-.3-1.4-.7-2.8-1.5-8.7-4.8-10.8-7.1-.5-.6-1.2-1.6-1.8-2.7,0,0,0,0,0-.1,0-.9.2-1.9.3-3,1,2,2,3.7,2.8,4.7ZM316.3,234.2h0s0,0,.1,0c0,0,0,0,0,0,0,0,0,0,0,0,.2,0,.3,0,.5-.2,0,0,0,0,.1,0,0,0,0,0,0-.1l.6-.8c.4.2.8.4,1.3.7.9.5,1.8,1,2.7,1.5.5.3,1,.6,1.5.9,2,1.1,3.5,2,3.9,2.3,0,0,0,0,0,0,.4.3,1,.5,1.6.7h0c2,.7,5.1.9,9.1.6l-.3,1.8c-4.2.2-7.3,0-9.5-.8-.6-.2-1.1-.4-1.6-.7,0,0-.2,0-.2-.1-.7-.5-2-1.2-3.6-2.1-.5-.3-1-.6-1.5-.8-1-.6-2.1-1.2-3.2-1.7-.5-.3-1.1-.6-1.6-.8,0,0,0,0-.1,0,0,0,.1,0,.2,0ZM306.1,238.6h0c.6.7,1.6,1.5,2.8,2.3.6.4,1.2.8,1.8,1.2,1.1.7,2.3,1.4,3.4,2,1.1.6,2,1.1,2.7,1.5.3.2.6.3.7.4,1.6,0,3.3,0,4.6,0,.2,0,.3,0,.5,0-.2-.1-.5-.3-.7-.4h0c-.8-.5-1.8-1.1-2.7-1.6-1.5-.9-3.1-1.9-4.7-2.8-1-.6-2-1.2-2.9-1.8l-.3-.5.4-1.5c.5.3,1,.7,1.5,1,2.2,1.4,4.7,2.9,6.8,4.2.2.1.3.2.5.3h0c1.2.7,2,1.2,2.7,1.6h0c.5.3.9.6,1.2.8.4.3.6.4.7.6h0s0,0,0,0c0,0,0,0,0,0,0,0,.1.2.1.2.1.3.1.7,0,.9,0,.1-.2.3-.7.5,0,0-.1,0-.2,0-.2,0-.5.1-.8.2,0,0-.1,0-.2,0-.3,0-.6,0-.9,0-1.1,0-2.6.1-4.7,0-.2,0-.4,0-.5,0h-.2s-.2,0-.2,0c0,0-.6-.3-1.4-.7-2.8-1.5-8.7-4.8-10.8-7.1-.5-.6-1.2-1.6-1.8-2.7,0,0,0,0,0-.1,0-.9.2-1.9.3-3,1,2,2,3.7,2.8,4.7ZM316.3,234.2h0s0,0,.1,0c0,0,0,0,0,0,0,0,0,0,0,0,.2,0,.3,0,.5-.2,0,0,0,0,.1,0,0,0,0,0,0-.1l.6-.8c.4.2.8.4,1.3.7.9.5,1.8,1,2.7,1.5.5.3,1,.6,1.5.9,2,1.1,3.5,2,3.9,2.3,0,0,0,0,0,0,.4.3,1,.5,1.6.7h0c2,.7,5.1.9,9.1.6l-.3,1.8c-4.2.2-7.3,0-9.5-.8-.6-.2-1.1-.4-1.6-.7,0,0-.2,0-.2-.1-.7-.5-2-1.2-3.6-2.1-.5-.3-1-.6-1.5-.8-1-.6-2.1-1.2-3.2-1.7-.5-.3-1.1-.6-1.6-.8,0,0,0,0-.1,0,0,0,.1,0,.2,0ZM306.1,238.6h0c.6.7,1.6,1.5,2.8,2.3.6.4,1.2.8,1.8,1.2,1.1.7,2.3,1.4,3.4,2,1.1.6,2,1.1,2.7,1.5.3.2.6.3.7.4,1.6,0,3.3,0,4.6,0,.2,0,.3,0,.5,0-.2-.1-.5-.3-.7-.4h0c-.8-.5-1.8-1.1-2.7-1.6-1.5-.9-3.1-1.9-4.7-2.8-1-.6-2-1.2-2.9-1.8-.4-.3-.8-.5-1.1-.8-.7-.5-1.3-.9-1.8-1.3l-.2-2.4s0,0,.2.1c.5.4,1,.9,1.7,1.3.5.3.9.7,1.5,1,.5.3,1,.7,1.5,1,2.2,1.4,4.7,2.9,6.8,4.2.2.1.3.2.5.3h0c1.2.7,2,1.2,2.7,1.6h0c.5.3.9.6,1.2.8.4.3.6.4.7.6h0s0,0,0,0c0,0,0,0,0,0,0,0,.1.2.1.2.1.3.1.7,0,.9,0,.1-.2.3-.7.5,0,0-.1,0-.2,0-.2,0-.5.1-.8.2,0,0-.1,0-.2,0-.3,0-.6,0-.9,0-1.1,0-2.6.1-4.7,0-.2,0-.4,0-.5,0h-.2s-.2,0-.2,0c0,0-.6-.3-1.4-.7-2.8-1.5-8.7-4.8-10.8-7.1-.5-.6-1.2-1.6-1.8-2.7,0,0,0,0,0-.1,0-.9.2-1.9.3-3,1,2,2,3.7,2.8,4.7ZM290.5,220.2h0c5.1-1.3,8.7,4.7,8.8,4.9h0c0,.2,1.1,2.9,2.5,5.9.5,1,.9,2,1.4,3,1,2,2,3.7,2.8,4.7.6.7,1.6,1.5,2.8,2.3.6.4,1.2.8,1.8,1.2,1.1.7,2.3,1.4,3.4,2,1.1.6,2,1.1,2.7,1.5.3.2.6.3.7.4,1.6,0,3.3,0,4.6,0,.2,0,.3,0,.5,0-.2-.1-.5-.3-.7-.4h0c-.8-.5-1.8-1.1-2.7-1.6-1.5-.9-3.1-1.9-4.7-2.8-1-.6-2-1.2-2.9-1.8-.4-.3-.8-.5-1.1-.8-.7-.5-1.3-.9-1.8-1.3-.4-.3-.8-.7-1.2-1-2.7-2.3-2.8-4-2.4-5,.4-1.1,1.5-1.8,3-2,0,0,.2,0,.3,0,0,0,0,0,.1,0,.2,0,.5,0,.8.1.2,0,.3,0,.5.1,1,.3,2.3.8,3.8,1.5.5.2,1.1.5,1.6.8.4.2.8.4,1.2.6.4.2.8.4,1.2.6.1,0,.2.1.3.2.4.2.8.4,1.3.7.9.5,1.8,1,2.7,1.5.5.3,1,.6,1.5.9,2,1.1,3.5,2,3.9,2.3,0,0,0,0,0,0,.4.3,1,.5,1.6.7h0c2,.7,5.1.9,9.1.6.6,0,1.2,0,1.8-.1.3,0,.5,0,.8,0,2.7-.3,5.3,0,7.5.8.6.2,1.2.4,1.8.7,3.7,1.6,6.6,4.3,8.2,6.9,2.2,3.7,10.7,8.8,12.6,9.9l-1,1.4c-2.2-1.3-10.8-6.4-13.2-10.4-1.3-2.2-3.6-4.4-6.5-5.8-.6-.3-1.2-.6-1.8-.8-2.2-.8-4.8-1.2-7.5-1-.4,0-.9,0-1.3.1-.6,0-1.2,0-1.8.1-4.2.2-7.3,0-9.5-.8-.6-.2-1.1-.4-1.6-.7,0,0-.2,0-.2-.1-.7-.5-2-1.2-3.6-2.1-.5-.3-1-.6-1.5-.8-1-.6-2.1-1.2-3.2-1.7-.5-.3-1.1-.6-1.6-.8,0,0,0,0-.1,0-.5-.3-1-.5-1.5-.8-.5-.3-1.1-.5-1.6-.8-1.2-.6-2.3-1.1-3.2-1.4-.7-.2-1.2-.4-1.4-.4-.1,0-.2,0-.3,0-.8,0-1.3.4-1.5.8,0,.3-.2,1.2,1.8,3,0,0,0,0,.2.1.5.4,1,.9,1.7,1.3.5.3.9.7,1.5,1,.5.3,1,.7,1.5,1,2.2,1.4,4.7,2.9,6.8,4.2.2.1.3.2.5.3h0c1.2.7,2,1.2,2.7,1.6h0c.5.3.9.6,1.2.8.4.3.6.4.7.6h0s0,0,0,0c0,0,0,0,0,0,0,0,.1.2.1.2.1.3.1.7,0,.9,0,.1-.2.3-.7.5,0,0-.1,0-.2,0-.2,0-.5.1-.8.2,0,0-.1,0-.2,0-.3,0-.6,0-.9,0-1.1,0-2.6.1-4.7,0-.2,0-.4,0-.5,0h-.2s-.2,0-.2,0c0,0-.6-.3-1.4-.7-2.8-1.5-8.7-4.8-10.8-7.1-.5-.6-1.2-1.6-1.8-2.7-.5-.8-1-1.8-1.4-2.8-1.8-3.7-3.5-7.7-3.7-8.4-.3-.5-2.7-4.2-5.8-4.2l8.5,20.7h0c0,.1,0,.2,0,.2,0,0,.5,3.1,5.2,6.1,3.6,2.3,9.1,6.1,12.2,8.3.6.4,1,.7,1.4,1,.3.2.5.3.6.4,2.2.1,17.9,1.3,30,4.8.6.2,1.2.4,1.8.6.2,0,.5.2.7.2h.2c0,0,7.6,9.1,7.6,9.1l-1.4,1.1-7.3-8.7c-12.9-4.3-31.9-5.4-32.1-5.5h-.2s-.2-.2-.2-.2c0,0-9.2-6.5-14.4-9.8-5-3.2-5.8-6.5-6-7.2l-9.3-22.6,1-.3ZM317.9,235h0c-.5-.3-1.1-.6-1.6-.8,0,0,0,0-.1,0,0,0,.1,0,.2,0,0,0,0,0,.1,0,0,0,0,0,0,0,0,0,0,0,0,0,.2,0,.3,0,.5-.2,0,0,0,0,.1,0,0,0,0,0,0-.1l.6-.8c.4.2.8.4,1.3.7.9.5,1.8,1,2.7,1.5-.2.6-.5,1.1-.7,1.6-1-.6-2.1-1.2-3.2-1.7ZM306.1,238.6h0c.6.7,1.6,1.5,2.8,2.3.6.4,1.2.8,1.8,1.2,1.1.7,2.3,1.4,3.4,2,1.1.6,2,1.1,2.7,1.5.3.2.6.3.7.4,1.6,0,3.3,0,4.6,0,.2,0,.3,0,.5,0-.2-.1-.5-.3-.7-.4h0c-.8-.5-1.8-1.1-2.7-1.6-1.5-.9-3.1-1.9-4.7-2.8-1-.6-2-1.2-2.9-1.8-.4-.3-.8-.5-1.1-.8-.7-.5-1.3-.9-1.8-1.3-.4-.3-.8-.7-1.2-1-2.7-2.3-2.8-4-2.4-5,.4-1.1,1.5-1.8,3-2,0,0,.2,0,.3,0,0,0,0,0,0,0,.3.2.7.3,1,0,.2,0,.3,0,.5.1,1,.3,2.3.8,3.8,1.5l-.5,1.7c-1.2-.6-2.3-1.1-3.2-1.4-.7-.2-1.2-.4-1.4-.4-.1,0-.2,0-.3,0-.8,0-1.3.4-1.5.8,0,.3-.2,1.2,1.8,3,0,0,0,0,.2.1.5.4,1,.9,1.7,1.3.5.3.9.7,1.5,1,.5.3,1,.7,1.5,1,2.2,1.4,4.7,2.9,6.8,4.2.2.1.3.2.5.3h0c1.2.7,2,1.2,2.7,1.6h0c.5.3.9.6,1.2.8.4.3.6.4.7.6h0s0,0,0,0c0,0,0,0,0,0,0,0,.1.2.1.2.1.3.1.7,0,.9,0,.1-.2.3-.7.5,0,0-.1,0-.2,0-.2,0-.5.1-.8.2,0,0-.1,0-.2,0-.3,0-.6,0-.9,0-1.1,0-2.6.1-4.7,0-.2,0-.4,0-.5,0h-.2s-.2,0-.2,0c0,0-.6-.3-1.4-.7-2.8-1.5-8.7-4.8-10.8-7.1-.5-.6-1.2-1.6-1.8-2.7,0,0,0,0,0-.1,0-.9.2-1.9.3-3,1,2,2,3.7,2.8,4.7ZM320.1,242.4h0c.2.1.3.2.5.3h0c1.2.7,2,1.2,2.7,1.6h0c.5.3.9.6,1.2.8.4.3.6.4.7.6h0s0,0,0,0c0,0,0,0,0,0,0,0,.1.2.1.2.1.3.1.7,0,.9,0,.1-.2.3-.7.5,0,0-.1,0-.2,0-.2,0-.5.1-.8.2,0,0-.1,0-.2,0-.3,0-.6,0-.9,0-1.1,0-2.6.1-4.7,0,0,0,0-.2,0-.3l-.9-1.8c.3.2.6.3.7.4,1.6,0,3.3,0,4.6,0,.2,0,.3,0,.5,0-.2-.1-.5-.3-.7-.4h0c-.8-.5-1.8-1.1-2.7-1.6-1.5-.9-3.1-1.9-4.7-2.8l-1.3-2.5v-.3c2.3,1.4,4.8,2.9,6.9,4.2ZM316.3,234.2h0s0,0,.1,0c0,0,0,0,0,0,0,0,0,0,0,0,.2,0,.3,0,.5-.2,0,0,0,0,.1,0,0,0,0,0,0-.1l.6-.8c.4.2.8.4,1.3.7.9.5,1.8,1,2.7,1.5.5.3,1,.6,1.5.9,2,1.1,3.5,2,3.9,2.3,0,0,0,0,0,0,.4.3,1,.5,1.6.7h0c2,.7,5.1.9,9.1.6l-.3,1.8c-4.2.2-7.3,0-9.5-.8-.6-.2-1.1-.4-1.6-.7,0,0-.2,0-.2-.1-.7-.5-2-1.2-3.6-2.1-.5-.3-1-.6-1.5-.8-1-.6-2.1-1.2-3.2-1.7-.5-.3-1.1-.6-1.6-.8,0,0,0,0-.1,0,0,0,.1,0,.2,0ZM306.1,238.6h0c.6.7,1.6,1.5,2.8,2.3.6.4,1.2.8,1.8,1.2,1.1.7,2.3,1.4,3.4,2,1.1.6,2,1.1,2.7,1.5.3.2.6.3.7.4,1.6,0,3.3,0,4.6,0,.2,0,.3,0,.5,0-.2-.1-.5-.3-.7-.4h0c-.8-.5-1.8-1.1-2.7-1.6-1.5-.9-3.1-1.9-4.7-2.8-1-.6-2-1.2-2.9-1.8l-.3-.5.4-1.5c.5.3,1,.7,1.5,1,2.2,1.4,4.7,2.9,6.8,4.2.2.1.3.2.5.3h0c1.2.7,2,1.2,2.7,1.6h0c.5.3.9.6,1.2.8.4.3.6.4.7.6h0s0,0,0,0c0,0,0,0,0,0,0,0,.1.2.1.2.1.3.1.7,0,.9,0,.1-.2.3-.7.5,0,0-.1,0-.2,0-.2,0-.5.1-.8.2,0,0-.1,0-.2,0-.3,0-.6,0-.9,0-1.1,0-2.6.1-4.7,0-.2,0-.4,0-.5,0h-.2s-.2,0-.2,0c0,0-.6-.3-1.4-.7-2.8-1.5-8.7-4.8-10.8-7.1-.5-.6-1.2-1.6-1.8-2.7,0,0,0,0,0-.1,0-.9.2-1.9.3-3,1,2,2,3.7,2.8,4.7ZM316.3,234.2h0s0,0,.1,0c0,0,0,0,0,0,0,0,0,0,0,0,.2,0,.3,0,.5-.2,0,0,0,0,.1,0,0,0,0,0,0-.1l.6-.8c.4.2.8.4,1.3.7.9.5,1.8,1,2.7,1.5.5.3,1,.6,1.5.9,2,1.1,3.5,2,3.9,2.3,0,0,0,0,0,0,.4.3,1,.5,1.6.7h0c2,.7,5.1.9,9.1.6l-.3,1.8c-4.2.2-7.3,0-9.5-.8-.6-.2-1.1-.4-1.6-.7,0,0-.2,0-.2-.1-.7-.5-2-1.2-3.6-2.1-.5-.3-1-.6-1.5-.8-1-.6-2.1-1.2-3.2-1.7-.5-.3-1.1-.6-1.6-.8,0,0,0,0-.1,0,0,0,.1,0,.2,0ZM306.1,238.6h0c.6.7,1.6,1.5,2.8,2.3.6.4,1.2.8,1.8,1.2,1.1.7,2.3,1.4,3.4,2,1.1.6,2,1.1,2.7,1.5.3.2.6.3.7.4,1.6,0,3.3,0,4.6,0,.2,0,.3,0,.5,0-.2-.1-.5-.3-.7-.4h0c-.8-.5-1.8-1.1-2.7-1.6-1.5-.9-3.1-1.9-4.7-2.8-1-.6-2-1.2-2.9-1.8l-.3-.5.4-1.5c.5.3,1,.7,1.5,1,2.2,1.4,4.7,2.9,6.8,4.2.2.1.3.2.5.3h0c1.2.7,2,1.2,2.7,1.6h0c.5.3.9.6,1.2.8.4.3.6.4.7.6h0s0,0,0,0c0,0,0,0,0,0,0,0,.1.2.1.2.1.3.1.7,0,.9,0,.1-.2.3-.7.5,0,0-.1,0-.2,0-.2,0-.5.1-.8.2,0,0-.1,0-.2,0-.3,0-.6,0-.9,0-1.1,0-2.6.1-4.7,0-.2,0-.4,0-.5,0h-.2s-.2,0-.2,0c0,0-.6-.3-1.4-.7-2.8-1.5-8.7-4.8-10.8-7.1-.5-.6-1.2-1.6-1.8-2.7,0,0,0,0,0-.1,0-.9.2-1.9.3-3,1,2,2,3.7,2.8,4.7ZM316.3,234.2h0s0,0,.1,0c0,0,0,0,0,0,0,0,0,0,0,0,.2,0,.3,0,.5-.2,0,0,0,0,.1,0,0,0,0,0,0-.1l.6-.8c.4.2.8.4,1.3.7.9.5,1.8,1,2.7,1.5.5.3,1,.6,1.5.9,2,1.1,3.5,2,3.9,2.3,0,0,0,0,0,0,.4.3,1,.5,1.6.7h0c2,.7,5.1.9,9.1.6l-.3,1.8c-4.2.2-7.3,0-9.5-.8-.6-.2-1.1-.4-1.6-.7,0,0-.2,0-.2-.1-.7-.5-2-1.2-3.6-2.1-.5-.3-1-.6-1.5-.8-1-.6-2.1-1.2-3.2-1.7-.5-.3-1.1-.6-1.6-.8,0,0,0,0-.1,0,0,0,.1,0,.2,0ZM306.1,238.6c.6.7,1.6,1.5,2.8,2.3.6.4,1.2.8,1.8,1.2,1.1.7,2.3,1.4,3.4,2,1.1.6,2,1.1,2.7,1.5.3.2.6.3.7.4,1.6,0,3.3,0,4.6,0,.2,0,.3,0,.5,0-.2-.1-.5-.3-.7-.4h0c-.8-.5-1.8-1.1-2.7-1.6-1.5-.9-3.1-1.9-4.7-2.8-1-.6-2-1.2-2.9-1.8-.4-.3-.8-.5-1.1-.8l-.2-2.2c.5.3.9.7,1.5,1,.5.3,1,.7,1.5,1,2.2,1.4,4.7,2.9,6.8,4.2.2.1.3.2.5.3h0c1.2.7,2,1.2,2.7,1.6h0c.5.3.9.6,1.2.8.4.3.6.4.7.6h0s0,0,0,0c0,0,0,0,0,0,0,0,.1.2.1.2.1.3.1.7,0,.9,0,.1-.2.3-.7.5,0,0-.1,0-.2,0-.2,0-.5.1-.8.2,0,0-.1,0-.2,0-.3,0-.6,0-.9,0-1.1,0-2.6.1-4.7,0-.2,0-.4,0-.5,0h-.2s-.2,0-.2,0c0,0-.6-.3-1.4-.7-2.8-1.5-8.7-4.8-10.8-7.1-.5-.6-1.2-1.6-1.8-2.7,0,0,0,0,0-.1,0-.9.2-1.9.3-3,1,2,2,3.7,2.8,4.7Z"/>
        <path class="cls-3" d="M308.4,234.7l.2,2.4.3,3.9v1.8c.2.4.4.6.7.8.1,0,.2,0,.4,0,.5,0,.8-.5.8-.9v-.4s-.3-3.7-.3-3.7l-.2-2.2c-.7-.5-1.2-.9-1.7-1.3,0,0-.1,0-.2-.1"/>
        <path class="cls-3" d="M302.8,222.6c-.1.8-.6,4.8-1,8.4-.1,1.2-.3,2.3-.4,3.3.5,1,1,1.9,1.4,2.8,0,0,0,0,0-.1,0-.9.2-1.9.3-3,.5-4.5,1.1-10.2,1.3-11.1.1-.7,2.3-4.5,4.7-8.5.4-.7.9-1.5,1.3-2.2,0,0,0-.1,0-.2,0,0,0,0,0,0,0,0,0,0,0,0,.3.4.5,1,.5,1.6.1.9,0,1.8,0,2.3-1.1,3-3.1,11.3-3.3,12.2,0,0,0,0,0,0,0,0,0,0,0,0h0c0,0,0,.1,0,.1,0,0,0,0,0,.1,0,0,0,0,0,0v.6s.2,1.7.2,1.7c.1,0,.2,0,.3,0,.3,0,.8.1,1.4.4v-1.9c-.1,0-.2-.6-.2-.6v-.2c0-.4.4-1.9.9-3.6.7-2.9,1.7-6.7,2.4-8.4v-.2c0-.2.2-1.7,0-3.1,0-.6-.3-1.2-.5-1.7-.1-.2-.2-.4-.3-.5-.5-.6-1.1-.9-1.8-1h-.5s-.3.4-.3.4c-.3.6-.8,1.4-1.4,2.4h0c-.4.7-.8,1.4-1.3,2.2h0c-1.8,3.1-3.8,6.6-3.9,7.5"/>
        <path class="cls-3" d="M315.8,229.1h0s0,0,0,0M308.1,227.9h0l2.5-3,8.1-10,.6.4c.1,0,1.3.8,1.8,2.5.5,1.9-.2,4.3-1.9,7-1.2,1.9-2.1,3.3-2.7,4.1-.2.3-.5.7-.8.9l-.5,1.9-.5,1.7c-.5-.3-1.1-.5-1.6-.8l.5-1.7.6-2.2h0s0,0,0,0c.2-.2,1.3-1.2,3.5-4.8,1.8-2.8,1.9-4.6,1.7-5.6,0-.4-.3-.7-.4-1l-9.3,11.5-.2.3c0,0-.2.2-.3.2-.3.2-.7.1-1,0,0,0,0,0,0,0-.2-.2-.3-.4-.3-.6,0,0,0,0,0,0,0,0,0,0,0-.1,0,0,0,0,0-.1,0,0,0,0,0,0,0,0,0,0,0,0,0,0,0-.2.2-.3ZM313.2,238.2v.3c0,0,1.2,2.5,1.2,2.5l2.4,4.6.9,1.8c0,0,0,.2,0,.3-.2,0-.3,0-.5,0h-.2s-.2,0-.2,0c0,0-.6-.3-1.4-.7l-1.4-2.7-2.5-5-.3-.5.4-1.5c.5.3,1,.7,1.5,1Z"/>
        <path class="cls-3" d="M323.3,244.3c-.7-.4-1.5-.9-2.7-1.6l1.3,2.8h0s.2.5.2.5l.5,1.1c0,0,0,.1.1.2,0,.1.2.2.4.3.1,0,.2,0,.3,0,0,0,.1,0,.2,0,0,0,0,0,.1,0,.2,0,.3-.2.4-.4.1-.2.1-.5,0-.8l-.3-.6-.2-.4-.5-1.1h0Z"/>
        <path class="cls-3" d="M316.1,234.1s0,0,0,0c0,0,.1,0,.2,0,0,0,0,0,.1,0,0,0,0,0,0,0,0,0,0,0,0,0,.2,0,.3,0,.5-.2,0,0,0,0,.1,0,0,0,0,0,0-.1l.6-.8,1.6-2.3h0s4.3-6.2,4.3-6.2c.2.2.4.5.6.8.3.5.5,1.2.5,2,0,.8-.2,1.8-.8,2.9-.9,1.7-1.7,3.4-2.3,4.9-.2.6-.5,1.1-.7,1.6.5.3,1,.6,1.5.8.2-.5.4-1,.7-1.6.7-1.5,1.5-3.3,2.4-5,1.1-2.2,1.1-4,.7-5.3-.2-.7-.5-1.2-.8-1.7-.7-1-1.5-1.5-1.5-1.5l-.7-.4-7,10.1-.4.6c-.3.4-.2.9.2,1.2"/>
        <path class="cls-3" d="M324,247c0,0,.1.1.2.2,0,0,.2.2.3.3,0,0,0,0,0,0,1.7,1.6,4.8,4.9,5.6,6.8.1.2.3.4.5.5.2,0,.4,0,.6,0,.4-.2.6-.7.5-1.1-1.2-2.8-6-7.4-6.5-7.9,0,0,0,0,0,0,0,0,0,0,0,0,0,0,0,0,0,0-.3-.3-.9-.3-1.2,0,0,0,0,0,0,0-.3.3-.3.9,0,1.2"/>
        <polygon class="cls-3" points="252.7 417.8 252.7 419.5 247.1 419.5 247.1 438.3 245 438.3 245 419.5 239.3 419.5 239.3 417.8 252.7 417.8"/>
        <path class="cls-3" d="M268.4,429.4c0-1.2-.2-2.2-.7-3-.5-.8-1.2-1.5-2-1.9-.9-.4-1.8-.6-2.8-.6-1.5,0-2.8.5-3.9,1.5-1.1,1-1.7,2.4-1.8,4.1h11.3ZM270.5,429.5c0,.7,0,1.2,0,1.6h-13.3c0,1.2.4,2.2.9,3.1.5.9,1.2,1.5,2.1,1.9.9.4,1.8.7,2.8.7s2.4-.3,3.4-1c.9-.6,1.5-1.5,1.8-2.6h2.2c-.4,1.6-1.2,2.8-2.5,3.8-1.3,1-2.9,1.5-4.8,1.5s-2.9-.3-4-1c-1.2-.7-2.1-1.6-2.8-2.9-.7-1.2-1-2.7-1-4.4s.3-3.1,1-4.4c.7-1.3,1.6-2.2,2.8-2.9,1.2-.7,2.5-1,4.1-1s2.9.3,4,1c1.1.7,2,1.6,2.6,2.7.6,1.1.9,2.4.9,3.7Z"/>
        <path class="cls-3" d="M276.3,425.1c.4-1,1.1-1.8,2.1-2.3.9-.5,2.1-.8,3.4-.8v2.1h-.6c-1.5,0-2.7.4-3.6,1.2-.9.8-1.3,2.1-1.3,4v8.9h-2.1v-16h2.1v2.8Z"/>
        <path class="cls-3" d="M297.9,430.3c0-1.3-.3-2.4-.8-3.4-.5-1-1.2-1.7-2.2-2.3-.9-.5-1.9-.8-3-.8s-2.1.3-3,.8c-.9.5-1.6,1.2-2.1,2.2-.5,1-.8,2.1-.8,3.4s.3,2.5.8,3.4c.5,1,1.2,1.7,2.1,2.3.9.5,1.9.8,3,.8s2.1-.3,3-.8c.9-.5,1.6-1.3,2.2-2.3.5-1,.8-2.1.8-3.4M283.9,430.3c0-1.6.3-3.1,1-4.3.7-1.2,1.6-2.2,2.7-2.9,1.2-.7,2.5-1,3.9-1s2.8.4,3.9,1.1c1.1.7,1.9,1.6,2.4,2.7v-3.5h2.1v16h-2.1v-3.5c-.5,1.1-1.3,2-2.4,2.7-1.1.7-2.4,1.1-3.9,1.1s-2.7-.3-3.9-1c-1.2-.7-2.1-1.7-2.7-2.9-.7-1.3-1-2.7-1-4.3Z"/>
        <path class="cls-3" d="M318.5,430.3c0-1.3-.3-2.5-.8-3.4-.5-1-1.2-1.7-2.1-2.2-.9-.5-1.9-.8-3-.8s-2.1.3-3,.8c-.9.5-1.6,1.3-2.2,2.3-.5,1-.8,2.1-.8,3.4s.3,2.4.8,3.4c.5,1,1.2,1.7,2.2,2.3.9.5,1.9.8,3,.8s2.1-.3,3-.8c.9-.5,1.6-1.3,2.1-2.3.5-1,.8-2.1.8-3.4M306.6,425.8c.5-1.1,1.3-2,2.4-2.7,1.1-.7,2.4-1.1,3.9-1.1s2.8.3,3.9,1c1.2.7,2.1,1.6,2.7,2.9.7,1.2,1,2.7,1,4.3s-.3,3.1-1,4.3c-.7,1.3-1.6,2.2-2.7,2.9-1.2.7-2.5,1-3.9,1s-2.8-.4-3.9-1.1c-1.1-.7-1.9-1.6-2.4-2.7v11.1h-2v-23.6h2v3.5Z"/>
        <path class="cls-3" d="M336.8,429.4c0-1.2-.2-2.2-.7-3-.5-.8-1.2-1.5-2-1.9-.9-.4-1.8-.6-2.8-.6-1.5,0-2.8.5-3.9,1.5-1.1,1-1.7,2.4-1.8,4.1h11.3ZM338.9,429.5c0,.7,0,1.2,0,1.6h-13.3c0,1.2.4,2.2.9,3.1.5.9,1.2,1.5,2.1,1.9.9.4,1.8.7,2.8.7s2.4-.3,3.4-1c.9-.6,1.5-1.5,1.8-2.6h2.2c-.4,1.6-1.2,2.8-2.5,3.8-1.3,1-2.9,1.5-4.8,1.5s-2.9-.3-4-1c-1.2-.7-2.1-1.6-2.8-2.9-.7-1.2-1-2.7-1-4.4s.3-3.1,1-4.4c.7-1.3,1.6-2.2,2.8-2.9,1.2-.7,2.5-1,4.1-1s2.9.3,4,1c1.1.7,2,1.6,2.6,2.7.6,1.1.9,2.4.9,3.7Z"/>
        <path class="cls-3" d="M356.5,422.3v16h-2.1v-2.8c-.5,1-1.2,1.8-2.2,2.3-1,.5-2.1.8-3.3.8-1.9,0-3.5-.6-4.7-1.8-1.2-1.2-1.8-2.9-1.8-5.1v-9.3h2v9.1c0,1.7.4,3.1,1.3,4,.9.9,2.1,1.4,3.6,1.4s2.8-.5,3.7-1.5c.9-1,1.4-2.4,1.4-4.3v-8.7h2.1Z"/>
        <path class="cls-3" d="M363.9,424v9.9c0,1,.2,1.7.6,2,.4.4,1,.6,2,.6h1.9v1.8h-2.2c-1.4,0-2.5-.3-3.2-1-.7-.7-1.1-1.8-1.1-3.3v-9.9h-2.2v-1.7h2.2v-4h2.1v4h4.4v1.7h-4.4Z"/>
        <path class="cls-3" d="M384.7,430.3c0-1.3-.3-2.4-.8-3.4-.5-1-1.2-1.7-2.2-2.3-.9-.5-1.9-.8-3-.8s-2.1.3-3,.8c-.9.5-1.6,1.2-2.1,2.2-.5,1-.8,2.1-.8,3.4s.3,2.5.8,3.4c.5,1,1.2,1.7,2.1,2.3.9.5,1.9.8,3,.8s2.1-.3,3-.8c.9-.5,1.6-1.3,2.2-2.3.5-1,.8-2.1.8-3.4M370.7,430.3c0-1.6.3-3.1,1-4.3.7-1.2,1.6-2.2,2.7-2.9,1.2-.7,2.5-1,3.9-1s2.8.4,3.9,1.1c1.1.7,1.9,1.6,2.4,2.7v-3.5h2.1v16h-2.1v-3.5c-.5,1.1-1.3,2-2.4,2.7-1.1.7-2.4,1.1-3.9,1.1s-2.7-.3-3.9-1c-1.2-.7-2.1-1.7-2.7-2.9-.7-1.3-1-2.7-1-4.3Z"/>
        <polygon class="cls-3" points="414.6 417.8 414.6 438.3 412.6 438.3 412.6 428.7 401.5 428.7 401.5 438.3 399.4 438.3 399.4 417.8 401.5 417.8 401.5 427 412.6 427 412.6 417.8 414.6 417.8"/>
        <path class="cls-3" d="M426.3,436.8c1.1,0,2-.2,2.9-.7.9-.5,1.6-1.2,2.2-2.2.6-1,.8-2.2.8-3.6s-.3-2.6-.8-3.6c-.5-1-1.3-1.7-2.2-2.2-.9-.5-1.9-.7-2.9-.7s-2,.2-2.9.7c-.9.5-1.6,1.2-2.2,2.2-.5,1-.8,2.2-.8,3.6s.3,2.6.8,3.6c.5,1,1.3,1.7,2.1,2.2.9.5,1.9.7,2.9.7M426.3,438.5c-1.5,0-2.9-.3-4.1-1-1.2-.7-2.1-1.6-2.8-2.9-.7-1.2-1-2.7-1-4.4s.4-3.1,1.1-4.4c.7-1.2,1.7-2.2,2.9-2.9,1.2-.7,2.6-1,4.1-1s2.9.3,4.1,1,2.2,1.6,2.9,2.9c.7,1.2,1,2.7,1,4.4s-.4,3.1-1.1,4.3c-.7,1.3-1.7,2.2-2.9,2.9-1.2.7-2.6,1-4.1,1Z"/>
        <rect class="cls-3" x="438.1" y="416.6" width="2.1" height="21.7"/>
        <path class="cls-3" d="M457.1,438.5c-1.8,0-3.3-.4-4.5-1.3-1.2-.9-1.8-2-1.9-3.5h2.1c0,.9.5,1.6,1.3,2.2.8.6,1.8.8,3,.8s2-.3,2.6-.8c.6-.5,1-1.2,1-2s-.2-1-.5-1.3c-.4-.4-.8-.6-1.3-.8-.5-.2-1.3-.4-2.2-.7-1.2-.3-2.2-.6-2.9-.9-.7-.3-1.4-.8-1.9-1.4-.5-.6-.8-1.4-.8-2.5s.2-1.5.7-2.2c.5-.7,1.1-1.2,2-1.6.9-.4,1.8-.6,2.9-.6,1.7,0,3.1.4,4.2,1.3,1.1.9,1.6,2.1,1.7,3.6h-2.1c0-.9-.4-1.7-1.1-2.3-.7-.6-1.6-.9-2.8-.9s-1.9.2-2.5.7c-.6.5-1,1.1-1,1.8s.2,1.1.6,1.5c.4.4.9.7,1.4.9.6.2,1.3.5,2.3.7,1.2.3,2.1.6,2.8.9.7.3,1.3.7,1.8,1.3.5.6.7,1.3.8,2.3,0,.9-.2,1.6-.7,2.3-.5.7-1.1,1.2-2,1.6-.8.4-1.8.6-2.9.6"/>
        <path class="cls-3" d="M469.2,424v9.9c0,1,.2,1.7.6,2,.4.4,1,.6,2,.6h1.9v1.8h-2.2c-1.4,0-2.5-.3-3.2-1-.7-.7-1.1-1.8-1.1-3.3v-9.9h-2.2v-1.7h2.2v-4h2.1v4h4.4v1.7h-4.4Z"/>
        <path class="cls-3" d="M479,422.3v16h-2.1v-16h2.1ZM478,419.3c-.4,0-.8-.1-1.1-.4s-.4-.7-.4-1.1.1-.8.4-1.1c.3-.3.6-.4,1.1-.4s.8.1,1.1.4c.3.3.4.6.4,1.1s-.1.8-.4,1.1c-.3.3-.6.4-1.1.4Z"/>
        <path class="cls-3" d="M482.7,430.3c0-1.7.3-3.1,1-4.4.7-1.2,1.6-2.2,2.8-2.9,1.2-.7,2.5-1,4-1s3.6.5,4.9,1.5c1.3,1,2.1,2.3,2.5,4h-2.2c-.3-1.2-.9-2.1-1.8-2.7-.9-.7-2-1-3.4-1s-2,.2-2.9.7c-.9.5-1.5,1.2-2,2.2-.5,1-.7,2.2-.7,3.6s.2,2.6.7,3.6c.5,1,1.2,1.7,2,2.2.9.5,1.8.7,2.9.7s2.5-.3,3.4-1c.9-.7,1.5-1.6,1.8-2.7h2.2c-.4,1.6-1.2,3-2.5,4-1.3,1-2.9,1.5-4.9,1.5s-2.8-.3-4-1c-1.2-.7-2.1-1.6-2.8-2.9-.7-1.2-1-2.7-1-4.4"/>
        <path class="cls-3" d="M514.7,430.3c0-1.3-.3-2.4-.8-3.4-.5-1-1.2-1.7-2.2-2.3-.9-.5-1.9-.8-3-.8s-2.1.3-3,.8c-.9.5-1.6,1.2-2.1,2.2-.5,1-.8,2.1-.8,3.4s.3,2.5.8,3.4c.5,1,1.2,1.7,2.1,2.3.9.5,1.9.8,3,.8s2.1-.3,3-.8c.9-.5,1.6-1.3,2.2-2.3.5-1,.8-2.1.8-3.4M500.7,430.3c0-1.6.3-3.1,1-4.3.7-1.2,1.6-2.2,2.7-2.9,1.2-.7,2.5-1,3.9-1s2.8.4,3.9,1.1c1.1.7,1.9,1.6,2.4,2.7v-3.5h2.1v16h-2.1v-3.5c-.5,1.1-1.3,2-2.4,2.7-1.1.7-2.4,1.1-3.9,1.1s-2.7-.3-3.9-1c-1.2-.7-2.1-1.7-2.7-2.9-.7-1.3-1-2.7-1-4.3Z"/>
        <path class="cls-3" d="M448.6,417.6l-6,3.5v-1.6l6-3.8v1.8ZM446.9,422.3v16h-2.1v-16h2.1Z"/>
      </g>
    </g>
  </g>
</svg>